<svg class="animated" id="freepik_stories-international-youth-day" xmlns="http://www.w3.org/2000/svg" viewBox="0 0 500 500" version="1.1" xmlns:xlink="http://www.w3.org/1999/xlink" xmlns:svgjs="http://svgjs.com/svgjs"><style>svg#freepik_stories-international-youth-day:not(.animated) .animable {opacity: 0;}svg#freepik_stories-international-youth-day.animated #freepik--background-complete--inject-10 {animation: 1s 1 forwards cubic-bezier(.36,-0.01,.5,1.38) slideDown;animation-delay: 0s;}svg#freepik_stories-international-youth-day.animated #freepik--Floor--inject-10 {animation: 1s 1 forwards cubic-bezier(.36,-0.01,.5,1.38) zoomOut;animation-delay: 0s;}svg#freepik_stories-international-youth-day.animated #freepik--Ballons--inject-10 {animation: 1s 1 forwards cubic-bezier(.36,-0.01,.5,1.38) slideDown,1.5s Infinite  linear floating;animation-delay: 0s,1s;}svg#freepik_stories-international-youth-day.animated #freepik--Texts--inject-10 {animation: 1s 1 forwards cubic-bezier(.36,-0.01,.5,1.38) zoomOut;animation-delay: 0s;}svg#freepik_stories-international-youth-day.animated #freepik--Plants--inject-10 {animation: 1s 1 forwards ease-in fadeIn;animation-delay: 0s;}svg#freepik_stories-international-youth-day.animated #freepik--character-2--inject-10 {animation: 1s 1 forwards cubic-bezier(.36,-0.01,.5,1.38) slideDown;animation-delay: 0s;}svg#freepik_stories-international-youth-day.animated #freepik--character-1--inject-10 {animation: 1s 1 forwards cubic-bezier(.36,-0.01,.5,1.38) slideDown;animation-delay: 0s;}            @keyframes slideDown {                0% {                    opacity: 0;                    transform: translateY(-30px);                }                100% {                    opacity: 1;                    transform: translateY(0);                }            }                    @keyframes zoomOut {                0% {                    opacity: 0;                    transform: scale(1.5);                }                100% {                    opacity: 1;                    transform: scale(1);                }            }                    @keyframes floating {                0% {                    opacity: 1;                    transform: translateY(0px);                }                50% {                    transform: translateY(-10px);                }                100% {                    opacity: 1;                    transform: translateY(0px);                }            }                    @keyframes fadeIn {                0% {                    opacity: 0;                }                100% {                    opacity: 1;                }            }        .animator-hidden { display: none; }</style><g id="freepik--background-complete--inject-10" class="animable" style="transform-origin: 253.293px 243.275px;"><path d="M280.29,336c2.63-6.87,3.3-14.7.65-21.56S270.61,301.08,262.41,300c-14.32-1.87-23.39,5-27.85,17.54-4.18,11.76-3.28,25.31,3.67,35.68,3.86,5.76,10.13,10.84,17,10,5.35-.68,9.58-4.74,13.13-8.79C273.21,348.89,277.66,342.87,280.29,336Z" style="fill: rgb(235, 235, 235); transform-origin: 257.335px 331.504px;" id="elifm7pnc30y" class="animable"></path><path d="M249.46,362.46a14.59,14.59,0,0,0-3,3.41,1.51,1.51,0,0,0-.26,1.37,1.12,1.12,0,0,0,1.39.44,3.41,3.41,0,0,0,1.23-1,12.63,12.63,0,0,0,2.09,1.63,1.38,1.38,0,0,0,1.14.27.94.94,0,0,0,.55-.72c.06-.32.64-1,.58-1.36-.25-1.35-1.29-2.27-1.85-3.53" style="fill: rgb(235, 235, 235); transform-origin: 249.66px 365.535px;" id="ellbfsw6o7qdj" class="animable"></path><path d="M248.86,366.13a2.49,2.49,0,0,1,.18-1.81c.37-1,1-1.54,1.07-1.46a12,12,0,0,1-.69,1.61A13.73,13.73,0,0,1,248.86,366.13Z" style="fill: rgb(224, 224, 224); transform-origin: 249.438px 364.491px;" id="elh888w4k3oza" class="animable"></path><path d="M250.35,365.35c-.1,0-.38-.5-.42-1.24s.19-1.31.29-1.28.08.58.12,1.26S250.46,365.31,250.35,365.35Z" style="fill: rgb(224, 224, 224); transform-origin: 250.166px 364.089px;" id="elizw0xz0yark" class="animable"></path><path d="M85.16,202.72c-2.31-8.31-7.14-16.16-14.42-20.78s-19-5.38-27.52-.67c-14.8,8.22-18.56,21-14,35.94,4.26,14,14.56,26.14,28.34,31.07,7.64,2.74,17.11,3.16,23-2.45,4.57-4.36,5.72-11.14,6.24-17.43C87.48,219.8,87.47,211,85.16,202.72Z" style="fill: rgb(245, 245, 245); transform-origin: 57.2947px 214.16px;" id="elccgyffzcra" class="animable"></path><path d="M74.55,249.15a17.24,17.24,0,0,0-.44,5.31,1.8,1.8,0,0,0,.71,1.47,1.29,1.29,0,0,0,1.61-.56,3.79,3.79,0,0,0,.46-1.8,14.69,14.69,0,0,0,3.11.07,1.63,1.63,0,0,0,1.26-.53,1.13,1.13,0,0,0,0-1.07c-.16-.34-.12-1.42-.39-1.68-1.19-1.1-2.8-1.24-4.21-2" style="fill: rgb(245, 245, 245); transform-origin: 77.7297px 252.193px;" id="el7wplco5jr5k" class="animable"></path><path d="M76.54,253c-.09.08-.76-.67-1.07-1.83a3,3,0,0,1,0-2.12,12.39,12.39,0,0,1,.48,2C76.21,252.15,76.66,253,76.54,253Z" style="fill: rgb(224, 224, 224); transform-origin: 75.9182px 251.028px;" id="elnc9rt17voa" class="animable"></path><path d="M77.41,251.26c-.07.1-.71-.21-1.26-.88s-.74-1.37-.62-1.41.48.49,1,1.1S77.49,251.14,77.41,251.26Z" style="fill: rgb(224, 224, 224); transform-origin: 76.4575px 250.123px;" id="elf4dsbyw7f5c" class="animable"></path><path d="M90.72,422.45a1.31,1.31,0,0,1,.15.2l.42.62a9.4,9.4,0,0,1,1.07,2.65,11.13,11.13,0,0,1,0,4.53,13.34,13.34,0,0,1-5,7.92,12.39,12.39,0,0,1-1.56,1,13.59,13.59,0,0,1-1.79.77,16,16,0,0,1-8.31.5A22.3,22.3,0,0,1,67.2,437a20.41,20.41,0,0,1-3.71-3.21,11,11,0,0,1-2.44-4.45,5.71,5.71,0,0,1-.09-2.6,4.59,4.59,0,0,1,1.23-2.28,5.59,5.59,0,0,1,4.7-1.44,7.16,7.16,0,0,1,4.16,2.3,10.92,10.92,0,0,1,2.35,3.9,13.47,13.47,0,0,1,.22,8.31,12.61,12.61,0,0,1-3.89,6.12,12.38,12.38,0,0,1-2.67,1.75,13.86,13.86,0,0,1-7.18,1.34,12.72,12.72,0,0,1-2.8-.6l-.69-.27-.23-.11a16.17,16.17,0,0,0,3.74.79,13.72,13.72,0,0,0,4.43-.44,12.64,12.64,0,0,0,2.59-1,11.21,11.21,0,0,0,2.58-1.73,12.33,12.33,0,0,0,3.73-6,13.14,13.14,0,0,0-.26-8,10.54,10.54,0,0,0-2.26-3.74,6.74,6.74,0,0,0-3.89-2.14,5.1,5.1,0,0,0-4.28,1.31,4.52,4.52,0,0,0-1,4.42,10.64,10.64,0,0,0,2.33,4.24,19.9,19.9,0,0,0,3.62,3.13,22,22,0,0,0,8.27,3.59,15.65,15.65,0,0,0,8.09-.45,11.78,11.78,0,0,0,1.74-.73,12.41,12.41,0,0,0,1.52-1,12.9,12.9,0,0,0,2.45-2.38,13.77,13.77,0,0,0,2.51-5.29,11.19,11.19,0,0,0,.12-4.43A12,12,0,0,0,90.72,422.45Z" style="fill: rgb(235, 235, 235); transform-origin: 74.3765px 434.618px;" id="el42gl1t65b3f" class="animable"></path><path d="M267.81,423.38s.06.06.16.2l.41.62a9.08,9.08,0,0,1,1.08,2.65,11.31,11.31,0,0,1,0,4.53,13.81,13.81,0,0,1-2.51,5.44,13.6,13.6,0,0,1-2.49,2.48,13.29,13.29,0,0,1-1.57,1,13,13,0,0,1-1.79.77,16,16,0,0,1-8.31.5,22.3,22.3,0,0,1-8.47-3.63,20.75,20.75,0,0,1-3.71-3.21,11.2,11.2,0,0,1-2.44-4.45,5.85,5.85,0,0,1-.09-2.6,4.57,4.57,0,0,1,1.24-2.28A5.56,5.56,0,0,1,244,424a7.19,7.19,0,0,1,4.17,2.3,11.22,11.22,0,0,1,2.35,3.9,13.61,13.61,0,0,1,.22,8.31,12.69,12.69,0,0,1-3.89,6.12,12,12,0,0,1-2.67,1.74,13,13,0,0,1-2.67,1,13.48,13.48,0,0,1-4.52.37,13,13,0,0,1-2.8-.6l-.69-.27-.23-.11a16.09,16.09,0,0,0,3.74.78,13.16,13.16,0,0,0,4.43-.44,12.31,12.31,0,0,0,2.6-1,11.77,11.77,0,0,0,2.58-1.73,12.32,12.32,0,0,0,3.72-6,13.13,13.13,0,0,0-.25-8,10.69,10.69,0,0,0-2.26-3.74,6.76,6.76,0,0,0-3.9-2.14,5.07,5.07,0,0,0-4.27,1.3,4.51,4.51,0,0,0-1,4.42,10.63,10.63,0,0,0,2.34,4.25,20.24,20.24,0,0,0,3.61,3.13,21.94,21.94,0,0,0,8.28,3.59,15.66,15.66,0,0,0,8.09-.45,12.76,12.76,0,0,0,1.74-.73,13.23,13.23,0,0,0,1.52-1,13.46,13.46,0,0,0,2.44-2.38,13.8,13.8,0,0,0,2.52-5.29,11.36,11.36,0,0,0,.11-4.43A11.7,11.7,0,0,0,267.81,423.38Z" style="fill: rgb(235, 235, 235); transform-origin: 251.48px 435.586px;" id="elnzcajl6r26" class="animable"></path><path d="M439.19,435l-.25,0-.74-.09a9.23,9.23,0,0,1-2.7-.95,11.13,11.13,0,0,1-3.38-3,13.76,13.76,0,0,1-2.43-5.48,13.42,13.42,0,0,1-.21-3.5,12.06,12.06,0,0,1,.26-1.86,14.23,14.23,0,0,1,.6-1.85,16,16,0,0,1,5.12-6.57,22.44,22.44,0,0,1,8.32-4,21,21,0,0,1,4.86-.66,11.21,11.21,0,0,1,4.95,1.11,5.77,5.77,0,0,1,2,1.65,4.62,4.62,0,0,1,.89,2.43,5.61,5.61,0,0,1-2,4.48,7.22,7.22,0,0,1-4.48,1.61,11.19,11.19,0,0,1-4.48-.82,13.51,13.51,0,0,1-6.38-5.33,12.62,12.62,0,0,1-2-7,12.24,12.24,0,0,1,.45-3.16,12.85,12.85,0,0,1,1-2.64,13.08,13.08,0,0,1,2.71-3.63,12.06,12.06,0,0,1,2.3-1.71l.66-.34.23-.1a16.9,16.9,0,0,0-3.06,2.28,13.67,13.67,0,0,0-2.59,3.62,12.87,12.87,0,0,0-1,2.6,12.23,12.23,0,0,0,1.61,9.82,13.18,13.18,0,0,0,6.2,5.13,10.94,10.94,0,0,0,4.3.77,6.74,6.74,0,0,0,4.18-1.51A5.08,5.08,0,0,0,456,412.3a4.55,4.55,0,0,0-2.64-3.69,10.78,10.78,0,0,0-4.73-1.05,20.82,20.82,0,0,0-4.74.64,22,22,0,0,0-8.16,3.85,15.6,15.6,0,0,0-5,6.37,13.31,13.31,0,0,0-.6,1.78,14.19,14.19,0,0,0-.26,1.8,13.24,13.24,0,0,0,.17,3.41,13.75,13.75,0,0,0,2.31,5.38,11.19,11.19,0,0,0,3.25,3A12.05,12.05,0,0,0,439.19,435Z" style="fill: rgb(235, 235, 235); transform-origin: 442.965px 414.295px;" id="elacn13j3pgxd" class="animable"></path><path d="M138.54,43.57a.91.91,0,0,1,.09.24c.05.2.12.44.21.74a9.82,9.82,0,0,1,.18,2.94,11.52,11.52,0,0,1-1.51,4.4,14.23,14.23,0,0,1-4.22,4.5,13.59,13.59,0,0,1-3.24,1.6,13.33,13.33,0,0,1-1.86.5,13.16,13.16,0,0,1-2,.17,16.5,16.5,0,0,1-8.27-2.22,23.09,23.09,0,0,1-7.08-6.31,21.5,21.5,0,0,1-2.57-4.34,11.43,11.43,0,0,1-.93-5.13,5.94,5.94,0,0,1,.76-2.57,4.75,4.75,0,0,1,2-1.82,5.77,5.77,0,0,1,5,.12,7.52,7.52,0,0,1,3.32,3.6,11.61,11.61,0,0,1,1,4.58,14,14,0,0,1-2.49,8.18,13,13,0,0,1-5.79,4.69,12.5,12.5,0,0,1-3.18.84,13.14,13.14,0,0,1-2.92.08,13.76,13.76,0,0,1-4.52-1.12A13.15,13.15,0,0,1,98,55.75l-.58-.49-.19-.18a16.2,16.2,0,0,0,3.39,2,13.65,13.65,0,0,0,4.46,1,13.31,13.31,0,0,0,2.86-.12,12.15,12.15,0,0,0,3.08-.85,12.74,12.74,0,0,0,5.58-4.6A13.58,13.58,0,0,0,119,44.58a11.07,11.07,0,0,0-1-4.38,7,7,0,0,0-3.1-3.36,5.24,5.24,0,0,0-4.6-.12,4.65,4.65,0,0,0-2.44,4,11.1,11.1,0,0,0,.9,4.9,20.58,20.58,0,0,0,2.5,4.23,22.51,22.51,0,0,0,6.91,6.2,16,16,0,0,0,8,2.2,12.27,12.27,0,0,0,1.93-.14,13,13,0,0,0,1.81-.47,13.81,13.81,0,0,0,3.16-1.53,14,14,0,0,0,4.18-4.34,11.42,11.42,0,0,0,1.55-4.28A12,12,0,0,0,138.54,43.57Z" style="fill: rgb(235, 235, 235); transform-origin: 118.145px 47.2092px;" id="el248g0o9d9uj" class="animable"></path><path d="M469,176.93a.81.81,0,0,1,.25,0l.74.07a9.15,9.15,0,0,1,2.74.85,11.18,11.18,0,0,1,3.48,2.88,13.73,13.73,0,0,1,2.63,5.39,13.3,13.3,0,0,1,.34,3.5,12,12,0,0,1-.19,1.86,12.87,12.87,0,0,1-.53,1.88,16,16,0,0,1-4.87,6.75,22.32,22.32,0,0,1-8.18,4.26,20.69,20.69,0,0,1-4.83.84,11.26,11.26,0,0,1-5-.92,5.75,5.75,0,0,1-2.07-1.59,4.48,4.48,0,0,1-1-2.39,5.54,5.54,0,0,1,1.85-4.54,7.16,7.16,0,0,1,4.42-1.78,11.16,11.16,0,0,1,4.51.65,13.55,13.55,0,0,1,6.57,5.09,12.61,12.61,0,0,1,2.27,6.88,11.64,11.64,0,0,1-.33,3.18,13.64,13.64,0,0,1-3.51,6.41,12.91,12.91,0,0,1-2.23,1.79l-.65.36-.23.11a16.2,16.2,0,0,0,3-2.4,13.19,13.19,0,0,0,2.47-3.71,12.88,12.88,0,0,0,.87-2.63,11.55,11.55,0,0,0,.29-3.1,12.32,12.32,0,0,0-2.26-6.66,13.19,13.19,0,0,0-6.38-4.89,10.64,10.64,0,0,0-4.33-.61,6.75,6.75,0,0,0-4.12,1.66,5.11,5.11,0,0,0-1.7,4.14,4.54,4.54,0,0,0,2.78,3.58,10.74,10.74,0,0,0,4.77.88,20,20,0,0,0,4.71-.82,21.8,21.8,0,0,0,8-4.14,15.56,15.56,0,0,0,4.78-6.55,13.67,13.67,0,0,0,.54-1.8,12.5,12.5,0,0,0,.19-1.81,13,13,0,0,0-.3-3.4,13.63,13.63,0,0,0-2.5-5.29,11.08,11.08,0,0,0-3.36-2.89A11.48,11.48,0,0,0,469,176.93Z" style="fill: rgb(235, 235, 235); transform-origin: 465.842px 197.69px;" id="el3f4zo3dxy4d" class="animable"></path><path d="M473.33,459.4a5.15,5.15,0,1,1-5.15-5.15A5.16,5.16,0,0,1,473.33,459.4Z" style="fill: rgb(235, 235, 235); transform-origin: 468.18px 459.4px;" id="elz113gxd43hf" class="animable"></path><path d="M212.77,282.67a5.16,5.16,0,1,1-5.15-5.15A5.15,5.15,0,0,1,212.77,282.67Z" style="fill: rgb(235, 235, 235); transform-origin: 207.61px 282.68px;" id="elcg22om20u7d" class="animable"></path><path d="M43.44,357.83a5.15,5.15,0,1,1-5.15-5.15A5.16,5.16,0,0,1,43.44,357.83Z" style="fill: rgb(235, 235, 235); transform-origin: 38.29px 357.83px;" id="elaub0b0ekde" class="animable"></path><path d="M381.89,247.67a2.58,2.58,0,1,1-2.58-2.58A2.57,2.57,0,0,1,381.89,247.67Z" style="fill: rgb(235, 235, 235); transform-origin: 379.31px 247.67px;" id="el03obsf5myy1u" class="animable"></path><path d="M355.94,117.53a2.58,2.58,0,1,1-2.57-2.57A2.57,2.57,0,0,1,355.94,117.53Z" style="fill: rgb(235, 235, 235); transform-origin: 353.36px 117.54px;" id="elcmpfvg95a2k" class="animable"></path><path d="M349.38,37.71a2.58,2.58,0,1,1-2.58-2.58A2.58,2.58,0,0,1,349.38,37.71Z" style="fill: rgb(235, 235, 235); transform-origin: 346.8px 37.71px;" id="elqtpkdxiiq69" class="animable"></path><path d="M212.11,350.79a2.58,2.58,0,1,1-2.58-2.57A2.59,2.59,0,0,1,212.11,350.79Z" style="fill: rgb(235, 235, 235); transform-origin: 209.53px 350.8px;" id="el1ap5najrit8" class="animable"></path><path d="M153.6,457.61A2.58,2.58,0,1,1,151,455,2.59,2.59,0,0,1,153.6,457.61Z" style="fill: rgb(235, 235, 235); transform-origin: 151.02px 457.58px;" id="elr3j5utypvk" class="animable"></path><path d="M188.16,456.73a2.58,2.58,0,1,1-2.57-2.58A2.57,2.57,0,0,1,188.16,456.73Z" style="fill: rgb(235, 235, 235); transform-origin: 185.58px 456.73px;" id="elfk43v5dvriv" class="animable"></path><path d="M285.71,402.17a2.58,2.58,0,1,1-2.58-2.58A2.58,2.58,0,0,1,285.71,402.17Z" style="fill: rgb(235, 235, 235); transform-origin: 283.13px 402.17px;" id="elzeugqus2gk9" class="animable"></path><path d="M349.6,328.63a2.58,2.58,0,1,1-2.57-2.58A2.57,2.57,0,0,1,349.6,328.63Z" style="fill: rgb(235, 235, 235); transform-origin: 347.02px 328.63px;" id="elv8mm5r5ykec" class="animable"></path><path d="M435.64,305.82a2.58,2.58,0,1,1-2.57-2.58A2.57,2.57,0,0,1,435.64,305.82Z" style="fill: rgb(235, 235, 235); transform-origin: 433.06px 305.82px;" id="eltn1qj031p4j" class="animable"></path><path d="M478.11,120.11a2.58,2.58,0,1,1-2.57-2.58A2.58,2.58,0,0,1,478.11,120.11Z" style="fill: rgb(235, 235, 235); transform-origin: 475.53px 120.11px;" id="elbh73966ecr" class="animable"></path><path d="M255,140.91a2.58,2.58,0,1,1-2.57-2.57A2.57,2.57,0,0,1,255,140.91Z" style="fill: rgb(235, 235, 235); transform-origin: 252.42px 140.92px;" id="el5jegeddar3g" class="animable"></path><path d="M469.58,69.73C469.8,63,468,56,463.67,50.83a22.52,22.52,0,0,0-20.41-6.94c-13,2.69-18.78,11.37-18.88,23.58-.09,11.46,4.77,22.94,13.91,29.85,5.07,3.83,12,6.35,17.74,3.54,4.44-2.19,6.89-7,8.75-11.57C467.32,83,469.37,76.48,469.58,69.73Z" style="fill: rgb(245, 245, 245); transform-origin: 446.988px 72.8094px;" id="elirdx0sl2cpc" class="animable"></path><path d="M450.8,101.94a13.58,13.58,0,0,0-1.57,3.87,1.38,1.38,0,0,0,.18,1.26,1,1,0,0,0,1.34,0,2.88,2.88,0,0,0,.76-1.24,11.86,11.86,0,0,0,2.31.78,1.25,1.25,0,0,0,1.06-.1.88.88,0,0,0,.27-.8c0-.29.24-1.09.09-1.34-.62-1.1-1.8-1.59-2.66-2.51" style="fill: rgb(245, 245, 245); transform-origin: 452.221px 104.594px;" id="ele3pm3a6l68f" class="animable"></path><path d="M451.38,105.31a3.21,3.21,0,0,1,.1-3.21,10,10,0,0,1-.11,1.6A11.31,11.31,0,0,1,451.38,105.31Z" style="fill: rgb(224, 224, 224); transform-origin: 451.239px 103.705px;" id="el3sivk3ilizz" class="animable"></path><path d="M452.45,104.19c-.08.06-.49-.33-.74-1s-.24-1.19-.14-1.19.25.48.48,1S452.53,104.12,452.45,104.19Z" style="fill: rgb(224, 224, 224); transform-origin: 451.985px 103.098px;" id="elstynk5ke9ej" class="animable"></path><path d="M206.3,37.71s-2.48-10.47-11.52-9L196.71,22s15,2.45,13.3,13.21Z" style="fill: rgb(245, 245, 245); transform-origin: 202.462px 29.855px;" id="eltrcx1eizpg" class="animable"></path><path d="M38.46,142.14s.48,10.75,9.64,11l-3.16,6.27s-14.3-5.2-10.59-15.45Z" style="fill: rgb(245, 245, 245); transform-origin: 40.9177px 150.775px;" id="elexudo7wvhni" class="animable"></path><path d="M464.82,153.12s-10.69,1.19-10.3,10.34l-6.46-2.73s4.25-14.62,14.72-11.59Z" style="fill: rgb(224, 224, 224); transform-origin: 456.44px 156.093px;" id="elxga8ehnpo7" class="animable"></path><path d="M318.29,438.24s-10-4.11-14,4.09l-4.35-5.51s10.78-10.76,18.49-3.06Z" style="fill: rgb(224, 224, 224); transform-origin: 309.185px 436.657px;" id="eltspm2twtw5o" class="animable"></path><path d="M413.23,263.47s6.66,8.45,14.22,3.28l1.09,6.93s-14.66,4.12-17.62-6.37Z" style="fill: rgb(224, 224, 224); transform-origin: 419.73px 268.974px;" id="elvbla7h4vbbq" class="animable"></path><path d="M64.42,315.38s-8.79.1-9.25,7.51l-5-2.73S54.87,308.71,63.1,312Z" style="fill: rgb(224, 224, 224); transform-origin: 57.295px 317.148px;" id="eljif01qza7u" class="animable"></path><path d="M85.37,462.37s-2.22-3.32-5.16-1.65l-.21-2.6s5.54-1.05,6.34,2.91Z" style="fill: rgb(224, 224, 224); transform-origin: 83.17px 460.182px;" id="el766d2bwc64o" class="animable"></path><path d="M213.19,424.11s-5.46,3.1-3.18,7.9l-4.09,0s-1-8.8,5.28-9.59Z" style="fill: rgb(224, 224, 224); transform-origin: 209.526px 427.215px;" id="elph4p07tl30p" class="animable"></path><path d="M70.08,39.05s-10.7,1.19-10.3,10.34l-6.47-2.74S57.57,32,68,35.06Z" style="fill: rgb(224, 224, 224); transform-origin: 61.695px 42.0148px;" id="el21b99qzrc66" class="animable"></path><path d="M465.22,334.7s-7,2.12-5.54,8.14l-4.64-1s1-10.23,8.33-9.52Z" style="fill: rgb(224, 224, 224); transform-origin: 460.13px 337.562px;" id="el5e79sk37jgw" class="animable"></path><path d="M289.91,276.89s-7,2.12-5.54,8.14l-4.64-1s1-10.23,8.33-9.53Z" style="fill: rgb(224, 224, 224); transform-origin: 284.82px 279.748px;" id="elnfxt4d221q" class="animable"></path><path d="M387.05,49.06s-.77-7.22-6.95-7L382,37.72s9.86,2.92,7.78,10Z" style="fill: rgb(224, 224, 224); transform-origin: 385.084px 43.39px;" id="el0nx6vcjshsr" class="animable"></path></g><g id="freepik--Floor--inject-10" class="animable" style="transform-origin: 250px 478.13px;"><path d="M471.93,478.13c0,.14-99.37.26-221.92.26s-221.94-.12-221.94-.26,99.35-.26,221.94-.26S471.93,478,471.93,478.13Z" style="fill: rgb(38, 50, 56); transform-origin: 250px 478.13px;" id="elqjgouokszl" class="animable"></path></g><g id="freepik--Ballons--inject-10" class="animable" style="transform-origin: 256.548px 67.0452px;"><path d="M205.28,90c4.62-7.82,5.9-18.65,5.69-27.73S207,44,199.89,38.35s-17.66-7.15-25.52-2.6c-8.43,4.86-12.28,15.69-10.56,25.27s10.47,18.22,19.27,22.36C193,88.07,196,89.78,205.28,90" style="fill: rgb(255, 114, 94); transform-origin: 187.2px 61.5362px;" id="elrzjnuw41xcb" class="animable"></path><path d="M203.18,93.26a9,9,0,0,0,.07-4.84l1.2.34c1.33.28,3.36,2,4.27,3,.27.29.51.71.32,1s-.75.33-1.12.15a2.86,2.86,0,0,0-1.15-.47,3,3,0,0,1,.53,1.18,1,1,0,0,1-.55,1.08,1,1,0,0,1-1.14-.46,3.06,3.06,0,0,1-.36-1.27,3.08,3.08,0,0,1-.48,1.54,1.05,1.05,0,0,1-1.44.27C202.91,94.5,203,93.81,203.18,93.26Z" style="fill: rgb(255, 114, 94); transform-origin: 206.069px 91.6878px;" id="elutlf92qsgz7" class="animable"></path><path d="M203.17,89.92c-.07.17.65.53,1.51.22s1.18-1,1-1.12-.6.27-1.25.49S203.22,89.74,203.17,89.92Z" style="fill: rgb(38, 50, 56); transform-origin: 204.447px 89.6296px;" id="elyrx8yf5mw4a" class="animable"></path><path d="M170.68,68.05a6.25,6.25,0,0,0,.76,1.15c.52.71,1.33,1.7,2.39,2.88a50.2,50.2,0,0,0,9.41,8,49.41,49.41,0,0,0,11.09,5.42,32.88,32.88,0,0,0,3.59,1,5.06,5.06,0,0,0,1.36.24c0-.11-1.86-.61-4.79-1.72a56.16,56.16,0,0,1-20.32-13.3C172,69.51,170.77,68,170.68,68.05Z" style="fill: rgb(245, 245, 245); transform-origin: 184.98px 77.3944px;" id="el0rnmuwi1hga" class="animable"></path><path d="M166.53,58.55c-.18.06.13,1.36.68,2.9s1.13,2.75,1.3,2.69-.13-1.37-.67-2.91S166.7,58.49,166.53,58.55Z" style="fill: rgb(245, 245, 245); transform-origin: 167.518px 61.345px;" id="el2cot63qc5nu" class="animable"></path><g id="el3kqxek75syd"><g style="opacity: 0.3; transform-origin: 176.39px 54.8482px;" class="animable"><path d="M170.1,45.1c-4.23,7.09-2.71,14.74,2.9,20.8,1.79,1.93,4.08,3.55,6.83,3.55A5.34,5.34,0,0,0,182,69c3.4-1.4,3.59-5,2.54-7.86a52.89,52.89,0,0,0-3.16-5.88c-1-2-1.74-4.29-1.09-6.42s2.59-3.94,1.6-6.27a3.9,3.9,0,0,0-2.72-2.17,6.32,6.32,0,0,0-2.77,0,9.13,9.13,0,0,0-5.7,3.89Z" style="fill: rgb(255, 255, 255); transform-origin: 176.39px 54.8482px;" id="elsmo2wr2qbu" class="animable"></path></g></g><path d="M249.57,105.47c-11.29-6.53-20.51-19.2-26.64-30.72s-7.88-25.7-3-37.78,17.09-21.37,30.14-21.21c14,.17,26.42,11,31,24.22s-.29,30.19-8.4,41.57C263.56,94.4,261,98.66,249.57,105.47" style="fill: rgb(69, 90, 100); transform-origin: 249.974px 60.614px;" id="el19sgi6ndobw" class="animable"></path><path d="M254.47,108.06a13.12,13.12,0,0,1-3.48-6l-1.27,1.26c-1.47,1.29-2.77,4.94-3.2,6.83-.13.55-.15,1.25.33,1.54s1.17-.11,1.52-.6.58-1.1,1.1-1.39a4.28,4.28,0,0,0,.18,1.85,1.29,1.29,0,0,0,2.54-.42,4.43,4.43,0,0,0-.43-1.84,4.34,4.34,0,0,0,1.68,1.59,1.49,1.49,0,0,0,2-.67C255.69,109.42,255,108.66,254.47,108.06Z" style="fill: rgb(69, 90, 100); transform-origin: 250.967px 107.303px;" id="el3eziqscj3vy" class="animable"></path><path d="M252.14,103.87c.16.12-.5,1-1.75,1.22s-2.16-.4-2-.56.93,0,1.93-.15S252,103.72,252.14,103.87Z" style="fill: rgb(38, 50, 56); transform-origin: 250.268px 104.49px;" id="elt0s8rk5e6ja" class="animable"></path><g id="elc3tok9793nl"><g style="opacity: 0.3; transform-origin: 241.017px 46.5895px;" class="animable"><path d="M238.83,23.05c-13.56,7-18.63,20.5-15.74,35.49.92,4.78,2.95,9.55,7.26,12.24a10,10,0,0,0,3.73,1.42c6.71,1.11,10.56-4.41,11.66-9.86.82-4,.46-8.21.77-12.32s1.45-8.43,4.55-11.14,7.91-3.67,8.62-8.3a7.19,7.19,0,0,0-2.14-6,11.88,11.88,0,0,0-4.33-2.76,16.92,16.92,0,0,0-12.75.56Z" style="fill: rgb(255, 255, 255); transform-origin: 241.017px 46.5895px;" id="el8tx5bk57hw2" class="animable"></path></g></g><path d="M277.45,53.62a10.19,10.19,0,0,1-.19,2c-.16,1.26-.49,3.06-1,5.27A68.89,68.89,0,0,1,274,68.51a81.35,81.35,0,0,1-3.91,8.95A81.88,81.88,0,0,1,265,85.81a72,72,0,0,1-5,6.24c-1.51,1.69-2.8,3-3.74,3.86a9.37,9.37,0,0,1-1.5,1.28,10.49,10.49,0,0,1,1.3-1.48c.88-.91,2.1-2.27,3.55-4s3.1-3.85,4.8-6.3a85.85,85.85,0,0,0,5-8.3,87.51,87.51,0,0,0,3.93-8.84c1-2.8,1.83-5.36,2.4-7.54s1-4,1.22-5.2A10.06,10.06,0,0,1,277.45,53.62Z" style="fill: rgb(255, 255, 255); transform-origin: 266.105px 75.405px;" id="el6d7bhjmlg7t" class="animable"></path><path d="M276,38.8c.2,0,.68,1.82,1.08,4.14s.56,4.23.36,4.26-.68-1.82-1.08-4.14S275.77,38.84,276,38.8Z" style="fill: rgb(255, 255, 255); transform-origin: 276.713px 43.0002px;" id="elk6bk08lhqh" class="animable"></path><path d="M314.11,113.41c-5.65-6.84-8.53-17.09-9.72-25.89s1.06-18.25,7.06-24.79,15.95-9.57,24.23-6.38c8.87,3.41,14.24,13.28,14,22.78s-7.34,19.17-15.2,24.51c-8.88,6-11.51,8.13-20.41,9.77" style="fill: rgb(255, 114, 94); transform-origin: 326.885px 84.2415px;" id="elkqh3zdim8nr" class="animable"></path><path d="M316.62,116.22a8.85,8.85,0,0,1-.8-4.66l-1.11.51c-1.24.48-2.93,2.49-3.65,3.6-.22.32-.39.76-.15,1.06s.77.21,1.1,0a2.76,2.76,0,0,1,1-.62,3.07,3.07,0,0,0-.32,1.22,1,1,0,0,0,.69,1,1,1,0,0,0,1-.63,2.86,2.86,0,0,0,.16-1.27,3,3,0,0,0,.7,1.41,1,1,0,0,0,1.42,0C317.07,117.38,316.84,116.74,316.62,116.22Z" style="fill: rgb(255, 114, 94); transform-origin: 313.84px 114.946px;" id="elmq9j88y1x7" class="animable"></path><path d="M316.12,113c.1.15-.54.61-1.41.44s-1.31-.81-1.17-.92.63.17,1.29.28S316,112.83,316.12,113Z" style="fill: rgb(38, 50, 56); transform-origin: 314.822px 112.986px;" id="elk655klrpdvm" class="animable"></path><path d="M344.15,87a5.32,5.32,0,0,1-.56,1.22,33.82,33.82,0,0,1-1.87,3.14A48.36,48.36,0,0,1,324,107.39a35,35,0,0,1-3.31,1.55,5.12,5.12,0,0,1-1.27.43c0-.1,1.7-.87,4.36-2.39a54.64,54.64,0,0,0,17.58-15.92C343.12,88.56,344.05,86.9,344.15,87Z" style="fill: rgb(245, 245, 245); transform-origin: 331.785px 98.1829px;" id="el2t5gpcpa0l" class="animable"></path><path d="M346.72,77.16a6.78,6.78,0,0,1-.22,2.9,6.78,6.78,0,0,1-.85,2.79c-.18,0-.08-1.33.21-2.91S346.54,77.12,346.72,77.16Z" style="fill: rgb(245, 245, 245); transform-origin: 346.173px 80.0045px;" id="el9gzken0kqfh" class="animable"></path><g id="eleo6xio00aug"><g style="opacity: 0.3; transform-origin: 322.908px 70.4749px;" class="animable"><path d="M326.13,58.91c-7.91.46-13.16,5.79-14.95,13.51-.57,2.46-.61,5.15.86,7.34a5.38,5.38,0,0,0,1.47,1.46c2.95,1.94,5.94.13,7.61-2.22a51,51,0,0,0,3-5.68c1-1.88,2.47-3.69,4.51-4.32s4.52-.08,5.84-2.12a3.73,3.73,0,0,0,.26-3.32,6.2,6.2,0,0,0-1.47-2.22,8.84,8.84,0,0,0-6.17-2.43Z" style="fill: rgb(255, 255, 255); transform-origin: 322.908px 70.4749px;" id="eligry1xup6zr" class="animable"></path></g></g></g><g id="freepik--Texts--inject-10" class="animable animator-hidden" style="transform-origin: 257.015px 210.25px;"><polygon points="253.57 173.66 227.98 147.16 221.62 189.08 187.33 187.92 208.79 216.09 187.2 244.42 222.95 237.37 228.12 273.34 257.02 251.45 293.46 270.53 285.48 233.71 326.83 227.2 294.67 208.22 313.42 175.88 281.28 188.45 277.37 148.57 253.57 173.66" style="fill: rgb(245, 245, 245); transform-origin: 257.015px 210.25px;" id="elt4b3640oh5n" class="animable"></polygon><path d="M206,217.33v9.79h-7.72v-9.91L187.82,199.8H196l6.48,10.85,6.48-10.85h7.49Z" style="fill: rgb(255, 114, 94); transform-origin: 202.135px 213.46px;" id="elop2zkqd09wl" class="animable"></path><path d="M220.17,226.07a10.45,10.45,0,0,1-5.81-9.56,10.44,10.44,0,0,1,5.79-9.51,14.42,14.42,0,0,1,12.31,0,10.31,10.31,0,0,1,5.78,9.51,10.71,10.71,0,0,1-1.52,5.66,10.58,10.58,0,0,1-4.26,3.9,14.19,14.19,0,0,1-12.29,0Zm9.33-5.84a5.26,5.26,0,0,0,1.25-3.72,5.15,5.15,0,0,0-1.25-3.67,4.51,4.51,0,0,0-6.4,0,5.11,5.11,0,0,0-1.25,3.67,5.22,5.22,0,0,0,1.25,3.72,4.47,4.47,0,0,0,6.4,0Z" style="fill: rgb(255, 114, 94); transform-origin: 226.301px 216.545px;" id="el7yrouidqsqd" class="animable"></path><path d="M263.92,206v21.15h-7.07v-2.26a7.49,7.49,0,0,1-2.81,1.95,9.19,9.19,0,0,1-3.47.66,8.86,8.86,0,0,1-6.54-2.42c-1.62-1.61-2.44-4-2.44-7.25V206H249v10.62a5.44,5.44,0,0,0,.9,3.47,3.17,3.17,0,0,0,2.61,1.09,3.69,3.69,0,0,0,2.87-1.23,5.47,5.47,0,0,0,1.11-3.76V206Z" style="fill: rgb(255, 114, 94); transform-origin: 252.755px 216.756px;" id="elpzlff8yuww" class="animable"></path><path d="M283.27,226.26a7.44,7.44,0,0,1-2.28.9,12.56,12.56,0,0,1-2.87.31c-2.76,0-4.88-.67-6.36-2s-2.22-3.36-2.22-6v-7.11h-3.09v-5.54h3.09v-5.5H277v5.5h4.84v5.54H277v7a2.46,2.46,0,0,0,.61,1.77,2.1,2.1,0,0,0,1.61.65,3.89,3.89,0,0,0,2.27-.67Z" style="fill: rgb(255, 114, 94); transform-origin: 274.86px 214.395px;" id="elz78wgszcudc" class="animable"></path><path d="M306.24,208c1.6,1.56,2.4,3.92,2.4,7.06v12.1h-7.42V216.23c0-2.88-1.15-4.33-3.47-4.33a4,4,0,0,0-3.06,1.25,5.34,5.34,0,0,0-1.15,3.75v10.22h-7.42v-29h7.42v9.75a8.21,8.21,0,0,1,2.85-1.72,10.34,10.34,0,0,1,3.51-.58A8.69,8.69,0,0,1,306.24,208Z" style="fill: rgb(255, 114, 94); transform-origin: 297.38px 212.64px;" id="el2820oi3wcsz" class="animable"></path><path d="M227.76,180.83v13.24H224v-5.16H218.9v5.16h-3.75V180.83h3.75v5H224v-5Z" style="fill: rgb(38, 50, 56); transform-origin: 221.455px 187.45px;" id="elsgm4yifpur" class="animable"></path><path d="M239.29,191.5h-5.61l-1,2.57h-3.82l5.85-13.24h3.69l5.87,13.24h-3.9Zm-1.1-2.76-1.7-4.24-1.71,4.24Z" style="fill: rgb(38, 50, 56); transform-origin: 236.565px 187.45px;" id="elqhd6uvxkj0a" class="animable"></path><path d="M254.47,181.42a4.68,4.68,0,0,1,0,8.6,7.73,7.73,0,0,1-3.13.59H249v3.46h-3.74V180.83h6.05A7.57,7.57,0,0,1,254.47,181.42Zm-1.61,5.74a1.78,1.78,0,0,0,.58-1.43,1.81,1.81,0,0,0-.58-1.44,2.58,2.58,0,0,0-1.74-.51H249v3.88h2.09A2.64,2.64,0,0,0,252.86,187.16Z" style="fill: rgb(38, 50, 56); transform-origin: 251.281px 187.448px;" id="el9fkbsjhurz8" class="animable"></path><path d="M268.23,181.42a4.68,4.68,0,0,1,0,8.6,7.73,7.73,0,0,1-3.13.59h-2.31v3.46h-3.74V180.83h6.05A7.57,7.57,0,0,1,268.23,181.42Zm-1.61,5.74a1.78,1.78,0,0,0,.58-1.43,1.81,1.81,0,0,0-.58-1.44,2.58,2.58,0,0,0-1.74-.51h-2.09v3.88h2.09A2.64,2.64,0,0,0,266.62,187.16Z" style="fill: rgb(38, 50, 56); transform-origin: 265.056px 187.449px;" id="elvae8pkp6u5b" class="animable"></path><path d="M279.9,189.32v4.75h-3.74v-4.8l-5.06-8.44h4l3.14,5.26,3.14-5.26H285Z" style="fill: rgb(38, 50, 56); transform-origin: 278.05px 187.45px;" id="elrz33raetta" class="animable"></path><path d="M238.39,229.62l.59,27.45-6.7.14,0-2a7.25,7.25,0,0,1-5.83,2.45,10,10,0,0,1-5-1.17,9.25,9.25,0,0,1-3.64-3.57A12.06,12.06,0,0,1,217.5,242a9.2,9.2,0,0,1,3.5-3.68,10.08,10.08,0,0,1,5-1.37,7.27,7.27,0,0,1,5.6,2l-.2-9.14Zm-7.65,21.09a5.81,5.81,0,0,0-.13-7,4.27,4.27,0,0,0-6.05.13,4.89,4.89,0,0,0-1.11,3.5,5,5,0,0,0,1.26,3.51,4.2,4.2,0,0,0,6-.13Z" style="fill: rgb(255, 114, 94); transform-origin: 227.661px 243.645px;" id="elmyufdb8nbn" class="animable"></path><path d="M259.27,238.52c1.79,1.48,2.71,3.79,2.78,6.92l.24,11.13-6.55.14-.06-2.59q-1.45,3-5.85,3.05a9.11,9.11,0,0,1-4.05-.73,5.68,5.68,0,0,1-3.56-5.29,5.15,5.15,0,0,1,2.09-4.47c1.43-1.07,3.67-1.65,6.7-1.71l4-.08q-.24-3.18-4.32-3.1a9.73,9.73,0,0,0-2.91.53,7.77,7.77,0,0,0-2.49,1.33l-2.47-4.72a12.86,12.86,0,0,1,4-1.81,19.05,19.05,0,0,1,4.77-.71Q256.6,236.31,259.27,238.52Zm-5.44,13.53a3.31,3.31,0,0,0,1.29-1.76l0-1.74-3,.06q-3.08.07-3,2.1a1.78,1.78,0,0,0,.74,1.47,3,3,0,0,0,1.93.51A3.91,3.91,0,0,0,253.83,252.05Z" style="fill: rgb(255, 114, 94); transform-origin: 252.25px 246.793px;" id="elx8i49qnui2k" class="animable"></path><path d="M287.06,236,278.84,257a11.27,11.27,0,0,1-3.59,5.27,9.22,9.22,0,0,1-5.29,1.62,10.85,10.85,0,0,1-3.21-.44,7.91,7.91,0,0,1-2.64-1.25l2.34-5a4.11,4.11,0,0,0,1.44.84,4.72,4.72,0,0,0,1.69.28,3,3,0,0,0,1.64-.44,3.13,3.13,0,0,0,1.06-1.32l-9-20.13,7.21-.15,5.18,12.14,4.7-12.35Z" style="fill: rgb(255, 114, 94); transform-origin: 275.17px 249.945px;" id="eliensla7gyv" class="animable"></path></g><g id="freepik--Plants--inject-10" class="animable animator-active" style="transform-origin: 249.986px 452.983px;"><path d="M250,427.61a9.56,9.56,0,0,1,4.92,5.58,16.76,16.76,0,0,1,.65,7.55c-.55,4.9-3.34,9.85-6.34,13.76-4.12-3.6-5.07-9.88-5.36-13.1-.44-5.08,1.84-14.55,6.13-13.79" style="fill: rgb(255, 114, 94); transform-origin: 249.778px 441.033px;" id="ellcx9r42tr2" class="animable"></path><path d="M254,462.59a8.09,8.09,0,0,1,2.62-7.7,10.7,10.7,0,0,1,7.93-2.48,4.53,4.53,0,0,1,3.49,1.56,3.49,3.49,0,0,1,.05,3.52,7.1,7.1,0,0,1-2.6,2.56c-3.58,2.24-7.45,3.76-11.49,2.54" style="fill: rgb(255, 114, 94); transform-origin: 261.191px 457.692px;" id="elnjp8ujkwbli" class="animable"></path><path d="M248.74,477.62a5.26,5.26,0,0,1,.14-1c.13-.7.3-1.62.5-2.72a28.47,28.47,0,0,1,2.81-8.69,17.43,17.43,0,0,1,6.24-6.63,11.76,11.76,0,0,1,2.55-1.13c.31-.1.56-.14.73-.19a.86.86,0,0,1,.26,0,18.48,18.48,0,0,0-3.41,1.56,18.09,18.09,0,0,0-6.06,6.59,30.79,30.79,0,0,0-2.87,8.57c-.25,1.14-.45,2.07-.61,2.7A6.47,6.47,0,0,1,248.74,477.62Z" style="fill: rgb(38, 50, 56); transform-origin: 255.355px 467.435px;" id="ely9ob90y2hd" class="animable"></path><path d="M248.89,435a2.19,2.19,0,0,1,.05.44c0,.33.05.75.08,1.26.06,1.1.12,2.69.18,4.65.13,3.93.23,9.36.21,15.35s-.18,11.43-.34,15.35c-.08,2-.16,3.55-.23,4.65,0,.52-.06.94-.08,1.26a1.72,1.72,0,0,1-.06.44,3,3,0,0,1,0-.44c0-.33,0-.75,0-1.27,0-1.14.06-2.72.11-4.65.09-3.92.2-9.35.23-15.34s0-11.41-.1-15.34c0-1.93,0-3.51-.07-4.65v-1.27A2.12,2.12,0,0,1,248.89,435Z" style="fill: rgb(38, 50, 56); transform-origin: 249.052px 456.7px;" id="elglwclbzyygf" class="animable"></path><path d="M246.89,465.58a19,19,0,0,0-10.35-13.89c-1.38-.66-3.18-1.09-4.31-.07s-.89,2.88-.33,4.3A16.2,16.2,0,0,0,246.79,466" style="fill: rgb(255, 114, 94); transform-origin: 239.16px 458.506px;" id="el1bl1v6cnr65" class="animable"></path><path d="M237.21,456.34a4.66,4.66,0,0,1,.87.38,9.14,9.14,0,0,1,1,.53c.37.23.82.46,1.26.79a17.41,17.41,0,0,1,1.44,1.08,17.74,17.74,0,0,1,1.54,1.4,21.43,21.43,0,0,1,2.91,3.74,20.61,20.61,0,0,1,1.92,4.34,17.85,17.85,0,0,1,.49,2,16,16,0,0,1,.25,1.79,13.15,13.15,0,0,1,.06,1.48,7.73,7.73,0,0,1,0,1.12,3.72,3.72,0,0,1-.11.95c-.08,0,.06-1.36-.18-3.53a15.77,15.77,0,0,0-.28-1.75,19.3,19.3,0,0,0-.51-2,20,20,0,0,0-4.76-7.95,19,19,0,0,0-1.49-1.4,17,17,0,0,0-1.39-1.1C238.41,457,237.17,456.41,237.21,456.34Z" style="fill: rgb(38, 50, 56); transform-origin: 243.09px 466.14px;" id="el9mtttdkk04h" class="animable"></path></g><g id="freepik--character-2--inject-10" class="animable" style="transform-origin: 382.936px 265.576px;"><path d="M362.72,447.27,367,468.55s-20.18,11.54-19.76,15.55l41.55-6.9-5.37-33.43Z" style="fill: rgb(69, 90, 100); transform-origin: 368.012px 463.935px;" id="el5cl36xexawq" class="animable"></path><path d="M379.59,464.61a1.72,1.72,0,0,1,1.49,1.75,1.64,1.64,0,0,1-1.71,1.49A1.81,1.81,0,0,1,377.8,466a1.71,1.71,0,0,1,1.95-1.36" style="fill: rgb(224, 224, 224); transform-origin: 379.44px 466.231px;" id="el9l297umts6g" class="animable"></path><path d="M388.83,477.2l-.67-3.35-39.59,7.87s-1.72,1.11-1.29,2.38Z" style="fill: rgb(38, 50, 56); transform-origin: 368.02px 478.975px;" id="el3zkirby0dup" class="animable"></path><path d="M366.33,468.45c0,.2,1.07.12,2.18.61s1.78,1.25,1.95,1.14-.32-1.23-1.67-1.8S366.25,468.27,366.33,468.45Z" style="fill: rgb(38, 50, 56); transform-origin: 368.409px 469.164px;" id="elgbfjp7yyat" class="animable"></path><path d="M362.27,471c0,.21.92.41,1.75,1.15s1.18,1.62,1.39,1.58.13-1.21-.92-2.12S362.24,470.78,362.27,471Z" style="fill: rgb(38, 50, 56); transform-origin: 363.886px 472.294px;" id="elodwe06hfw2" class="animable"></path><path d="M360.66,476.6c.19,0,.31-1.05-.4-2.07s-1.73-1.31-1.79-1.13.63.68,1.2,1.53S360.46,476.62,360.66,476.6Z" style="fill: rgb(38, 50, 56); transform-origin: 359.636px 474.975px;" id="el3237vpm52ky" class="animable"></path><path d="M365.88,463.49c.12.17,1-.26,2.16-.38s2.12.1,2.19-.09-.9-.77-2.26-.62S365.76,463.35,365.88,463.49Z" style="fill: rgb(38, 50, 56); transform-origin: 368.051px 462.952px;" id="el41x8fex3qzg" class="animable"></path><path d="M398.23,355.74l20.37-7.5S433.07,366.42,437,365.4l-13.14-40-32.22,10.4Z" style="fill: rgb(69, 90, 100); transform-origin: 414.32px 345.421px;" id="elouhu966to18" class="animable"></path><path d="M412.8,336.43a1.72,1.72,0,0,1,1.5-1.74,1.65,1.65,0,0,1,1.74,1.46,1.82,1.82,0,0,1-1.6,1.84,1.72,1.72,0,0,1-1.64-1.73" style="fill: rgb(224, 224, 224); transform-origin: 414.42px 336.338px;" id="elbipfdwcn4lv" class="animable"></path><path d="M423.83,325.38l-3.2,1.17,13.79,37.93s1.36,1.53,2.55.92Z" style="fill: rgb(38, 50, 56); transform-origin: 428.8px 345.462px;" id="elm357drqwz4h" class="animable"></path><path d="M418.61,349c.19-.07,0-1.08.27-2.24s1-1.95.83-2.11-1.17.51-1.52,1.93S418.44,349.05,418.61,349Z" style="fill: rgb(38, 50, 56); transform-origin: 418.909px 346.814px;" id="elh67ee3dq17n" class="animable"></path><path d="M421.72,352.58c.21,0,.26-1,.87-1.91s1.42-1.41,1.35-1.61-1.22.05-2,1.23S421.54,352.64,421.72,352.58Z" style="fill: rgb(38, 50, 56); transform-origin: 422.706px 350.79px;" id="eljq9h3fzh2g" class="animable"></path><path d="M427.53,353.31c0-.19-1.08-.14-2,.71s-1,1.91-.84,1.94.58-.72,1.33-1.41S427.57,353.51,427.53,353.31Z" style="fill: rgb(38, 50, 56); transform-origin: 426.078px 354.59px;" id="eliplahx87b2j" class="animable"></path><path d="M413.78,350.15c.15-.14-.42-.95-.7-2.08s-.23-2.11-.43-2.15-.62,1-.27,2.33S413.65,350.29,413.78,350.15Z" style="fill: rgb(38, 50, 56); transform-origin: 413.025px 348.043px;" id="elqxuvt7vacq" class="animable"></path><path d="M348.89,288.91c-.46,3.61-9.26,70.09-9.43,83.68-.12,9.65,21.58,92,21.58,92l27.78-5.34s-6.18-52.82-7.81-63.11c-1.17-7.34-5.89-22-4.9-24.58,1.53-4,16.51-60.11,17.41-61.91s6-40.1,2.28-38.6c-3.12,1.28-48.27-.26-48.27-.26Z" style="fill: rgb(38, 50, 56); transform-origin: 368.301px 367.69px;" id="el3iwtxsgq306" class="animable"></path><path d="M322.52,265.79s-5.56,44.06-8.4,59.59c-3.44,18.84-7.15,37.91,1.47,48.29,9.55,11.52,25.06,6.36,25.06,6.36L408,356.56,403.67,330l-45.22,8.54-2.34-65Z" style="fill: rgb(38, 50, 56); transform-origin: 359.147px 323.486px;" id="elc6svlhztpp" class="animable"></path><g id="elneh392hrvr8"><g style="opacity: 0.3; transform-origin: 358.835px 281.122px;" class="animable"><path d="M320.53,281.15s18.17,7.74,35,7.08,41.24-3.52,41.24-3.52l.37-4.43s-33-7-33.87-6.25-39.82,0-39.82,0L321,275Z" id="el7g19cijwzdq" class="animable" style="transform-origin: 358.835px 281.122px;"></path></g></g><path d="M396.9,282.75s0,2.27-.35,6.53a148.84,148.84,0,0,1-2.67,18.31c-.77,3.92-2,8.17-3.31,12.81l-4.18,15c-3,10.75-6.37,22.9-10.07,36.18v-.09c1,6.34,2.27,12.93,3.91,19.69.78,3.43,1.26,6.94,1.81,10.51s1,7.2,1.5,10.89c1.92,14.76,3.73,30.4,5.53,46.61l0,.23-.23.05-14,2.7-13.75,2.64-.24,0-.06-.24c-6-24.51-11.69-47.73-16.69-68.79q-1.87-7.91-3.58-15.39a75.6,75.6,0,0,1-1.44-7.44,42.62,42.62,0,0,1,.16-7.34c.94-9.57,3-18.27,4.22-26.28s2-15.32,2.79-21.7,1.37-11.87,1.89-16.36.9-7.94,1.16-10.31c.14-1.17.24-2.06.31-2.68l.12-.9s0,.31-.07.91-.14,1.51-.26,2.68c-.24,2.37-.6,5.84-1.07,10.32s-1.1,10-1.8,16.37-1.57,13.67-2.72,21.72-3.23,16.74-4.15,26.26a41.91,41.91,0,0,0-.15,7.27,74.94,74.94,0,0,0,1.44,7.38q1.71,7.49,3.6,15.38c5,21.05,10.71,44.27,16.75,68.78l-.31-.19,13.75-2.64,14-2.7-.21.28c-1.79-16.2-3.59-31.84-5.5-46.6q-.72-5.52-1.48-10.88c-.55-3.56-1-7.09-1.8-10.47-1.64-6.78-2.92-13.38-3.89-19.74v-.09L386,335.35q2.26-8.06,4.23-15c1.3-4.65,2.57-8.88,3.36-12.78a153.31,153.31,0,0,0,2.79-18.27c.18-2.13.3-3.75.36-4.85S396.9,282.75,396.9,282.75Z" style="fill: rgb(69, 90, 100); transform-origin: 367.946px 373.78px;" id="el5ej8apkrius" class="animable"></path><path d="M322.14,161.61S287.7,128.71,285.06,122s-2.72-49.47-1.82-55l13.63,2.48L303,111.94l27.83,26.54Z" style="fill: rgb(205, 128, 114); transform-origin: 306.776px 114.305px;" id="el80bxamg9bny" class="animable"></path><path d="M287.56,54.3c0-.35.34-4.54,1.5-5.4a2.93,2.93,0,0,1,2.71-.15,4.76,4.76,0,0,1,2.61-1.69,5.11,5.11,0,0,1,3,.86l1.34-.43c1.95-.63,2.86.31,2.86.31a5,5,0,0,0,2.48,1.82c1.47.38,2.17,5,2.65,7.19s1.17,5.19-1.56,7.52a88.74,88.74,0,0,1-9,6.47l-12.43-2.19s-1.23-1.93-.2-6.31A22.18,22.18,0,0,1,287.56,54.3Z" style="fill: rgb(205, 128, 114); transform-origin: 295.133px 58.9288px;" id="ely66akdqd7y" class="animable"></path><path d="M291.77,48.75a11.44,11.44,0,0,1,.15,2.48c0,1.53,0,3.64,0,6v.87a1.55,1.55,0,0,1,0,.26.72.72,0,0,1-.16.3,1.05,1.05,0,0,1-.47.28,3.64,3.64,0,0,1-1.69-.06,2.17,2.17,0,0,1-1.31-.86,3.71,3.71,0,0,1-.55-1.19,6.76,6.76,0,0,1-.24-1.83,1.49,1.49,0,0,1,.08-.67c.09,0,.06,1,.51,2.39a2.3,2.3,0,0,0,1.6,1.69,3.4,3.4,0,0,0,1.45,0,.51.51,0,0,0,.24-.14c.05-.07,0,0,0-.23s0-.57,0-.86c0-2.33.08-4.44.15-6A11.6,11.6,0,0,1,291.77,48.75Z" style="fill: rgb(154, 93, 83); transform-origin: 289.712px 53.8809px;" id="eln605z38b8t" class="animable"></path><path d="M297.4,47.92a8.3,8.3,0,0,1-.15,2.08c-.16,1.27-.42,3-.73,5v.18a5.71,5.71,0,0,1-.76,2.85,2.47,2.47,0,0,1-2.14,1.16,2.94,2.94,0,0,1-1.54-.53c-.31-.21-.45-.38-.42-.4s.19.08.52.23a3.32,3.32,0,0,0,1.44.33,2.11,2.11,0,0,0,1.73-1,5.48,5.48,0,0,0,.65-2.61V54.9c.31-1.95.63-3.7.88-5A8.41,8.41,0,0,1,297.4,47.92Z" style="fill: rgb(154, 93, 83); transform-origin: 294.534px 53.5552px;" id="elr9xy93ehcwo" class="animable"></path><path d="M301.6,47.8a17.29,17.29,0,0,1-1.08,2.93l0-.08c0,1.66.1,3.91.11,6.38,0,.54,0,1.07,0,1.59v.11l-.07.07a4.75,4.75,0,0,1-1.45.94,2.45,2.45,0,0,1-1.62.11,1.74,1.74,0,0,1-1.09-1,3.73,3.73,0,0,1-.3-1.18,7.32,7.32,0,0,1,0-1.69c.06-.39.12-.59.16-.59s-.06.87.14,2.24c.11.64.35,1.57,1.19,1.77a2.91,2.91,0,0,0,2.56-1l-.07.18,0-1.59c0-2.47,0-4.71,0-6.38v0l0,0A18.18,18.18,0,0,1,301.6,47.8Z" style="fill: rgb(154, 93, 83); transform-origin: 298.826px 53.8694px;" id="elcy9a6qj2ng" class="animable"></path><path d="M296.17,70.8s8.86-6.17,9-6.47,1.2-9.91.2-12.09-2.45-4.82-2.45-4.82-2.48-.28-2.59,3.54.06,7.79.06,7.79l-3,2.16s-8.2-.71-10.37,6.59" style="fill: rgb(205, 128, 114); transform-origin: 296.407px 59.1077px;" id="el2ud4c4e4wmm" class="animable"></path><path d="M287,67.5a4.93,4.93,0,0,1,.27-.92,5.63,5.63,0,0,1,.47-1,7.93,7.93,0,0,1,.84-1.32A9,9,0,0,1,292,61.66a12.58,12.58,0,0,1,5.43-1l-.15,0,3-2.17-.09.2c-.08-1.84-.13-3.8-.12-5.84a21.38,21.38,0,0,1,.16-3.16,4.17,4.17,0,0,1,.65-1.58,2.46,2.46,0,0,1,1.48-1,1.76,1.76,0,0,1,.61-.05h.14l.06.12c.46.89.9,1.77,1.34,2.63l.65,1.29a8,8,0,0,1,.6,1.32,11.87,11.87,0,0,1,.3,2.8c0,.9,0,1.78,0,2.65-.08,1.72-.22,3.34-.39,4.86,0,.38-.1.76-.14,1.12l-.05.29c0,.06,0,.12,0,.17a1.07,1.07,0,0,1-.14.16c-.16.14-.29.23-.44.34l-1.65,1.2c-2.12,1.49-3.85,2.67-5.05,3.47l-1.39.92a3,3,0,0,1-.51.29,2.28,2.28,0,0,1,.45-.38l1.33-1,5-3.61,1.62-1.21.4-.32,0,0h0l.1,0c-.12-.06-.08-.05-.08-.06v-.07l0-.26.12-1.1c.16-1.51.28-3.14.35-4.84,0-.86.05-1.73,0-2.62a11.18,11.18,0,0,0-.29-2.66,7.62,7.62,0,0,0-.57-1.25c-.22-.42-.44-.85-.65-1.28l-1.33-2.61.2.13a1.88,1.88,0,0,0-.45,0,2.46,2.46,0,0,0-1.73,2.14,20.78,20.78,0,0,0-.16,3.06c0,2,0,4,.08,5.82v.13l-.1.08-3,2.14-.06,0h-.08a12.24,12.24,0,0,0-5.25.86,8.94,8.94,0,0,0-3.32,2.38A13.48,13.48,0,0,0,287,67.5Z" style="fill: rgb(154, 93, 83); transform-origin: 296.53px 58.8712px;" id="el0fow71ctgnyn" class="animable"></path><path d="M411.12,174.69s10,3.74,12.62,14.45,18.88,47,18.88,47L465.83,274l-9.32,7.19S427.45,252.61,422.16,240s-11.46-24.58-11.46-24.58l-2.66-33Z" style="fill: rgb(205, 128, 114); transform-origin: 436.935px 227.94px;" id="elrgnowylt8bj" class="animable"></path><path d="M465.83,274c.34.37,13.34,11.72,13.38,12.12s3.94,11.67,3.94,11.67L479.53,305s-2.72,1.48-2.64-1l-.88.89a2.87,2.87,0,0,1-3.21.67c-.51-.23-.87-.57-.73-1.07l-.69-.06a1.54,1.54,0,0,1-1.25-2.25l.08-.13a5.23,5.23,0,0,1,1.35-1.64l-1.68-4.94-.16,4.91-2.26,3.06s-2.08.71-1.85-1.25a4,4,0,0,1,1-2.62l-1.71-4.15s-3.06-3.7-4.13-5.33-3.82-3.73-4-5.95-.35-3.74-.35-3.74Z" style="fill: rgb(205, 128, 114); transform-origin: 469.785px 289.895px;" id="elczoocn2tge8" class="animable"></path><path d="M472.84,281.16s.16,0,.41.22a4.49,4.49,0,0,1,.94,1,12.83,12.83,0,0,1,1.81,4.53c.53,2,1.14,4.38,1.8,6.95a8.93,8.93,0,0,1,.39,4.36,2.8,2.8,0,0,1-.58,1.12,1.76,1.76,0,0,1-1.23.63,2.55,2.55,0,0,1-2.14-1.41,33.15,33.15,0,0,1-3.13-8.08l.28.25a16.33,16.33,0,0,1-9-4.68,14.89,14.89,0,0,1-1.82-2.29,3.43,3.43,0,0,1-.47-.92c.09-.07.8,1.22,2.58,2.91a16.55,16.55,0,0,0,8.77,4.31l.22,0,.06.21a34.85,34.85,0,0,0,3.08,7.85c.39.61.93,1.12,1.49,1.08s1-.59,1.16-1.22a8.65,8.65,0,0,0-.35-4c-.62-2.59-1.17-4.95-1.65-7a13.93,13.93,0,0,0-1.55-4.5A11.66,11.66,0,0,0,472.84,281.16Z" style="fill: rgb(154, 93, 83); transform-origin: 469.201px 290.565px;" id="elhmmnfkepzml" class="animable"></path><path d="M475.53,299.16a20.66,20.66,0,0,1-1.71,2.5c-.91,1.4-1.77,2.51-1.95,2.39s.4-1.36,1.34-2.8S475.41,299,475.53,299.16Z" style="fill: rgb(154, 93, 83); transform-origin: 473.684px 301.599px;" id="elhovclruaac" class="animable"></path><path d="M476.65,288.23a12,12,0,0,1,.83,2.37c.24.73.55,1.59.94,2.52.2.47.41,1,.65,1.45a7.35,7.35,0,0,1,.65,1.7,2.68,2.68,0,0,1-.39,1.89c-.31.51-.58.92-.81,1.38a14.52,14.52,0,0,0-1,2.45c-.47,1.44-.46,2.4-.58,2.41a4.47,4.47,0,0,1,.08-2.55,12.63,12.63,0,0,1,.93-2.62c.41-1,1.33-1.85,1.09-2.83a7.28,7.28,0,0,0-.58-1.52c-.24-.52-.45-1-.63-1.51a22.82,22.82,0,0,1-.81-2.63A6.81,6.81,0,0,1,476.65,288.23Z" style="fill: rgb(154, 93, 83); transform-origin: 478.2px 296.315px;" id="el7ozqqauoxjn" class="animable"></path><path d="M404.59,110.12c3.57,2.85,9.14,7.24,12.13,10.7.7.8,1.38,2,.67,2.82s-2.52.7-3.47.64c-3.25-.21-10.58-2.17-14.81-5.72Z" style="fill: rgb(69, 90, 100); transform-origin: 408.4px 117.222px;" id="elmmvq4ad3qy8" class="animable"></path><path d="M396.05,132.35a82.7,82.7,0,0,0,6.7-12.6,28.92,28.92,0,0,0,2.16-14c-.09-.72-1.12-5.63-1.84-5.72-.51-.07-.2,4.35-.56,4.72a24.62,24.62,0,0,0-6,13.26,64.6,64.6,0,0,0-.47,14.31" style="fill: rgb(38, 50, 56); transform-origin: 400.441px 116.19px;" id="el0hpbe6iuekme" class="animable"></path><path d="M361.17,180.57c7.22,1.56,27.52-15.39,29.23-22.57l10.32-43.22c3.14-11.52-1-23-12.55-25.77l-1.09-.2a21.36,21.36,0,0,0-24.46,15.5c-2.66,10-5.48,21.09-6.41,26.54-1.91,11.3,9.05,15.11,9.05,15.11s-.56,2.6-1.3,5.88c-1.67,7.36-9.73,27.21-2.34,28.8Z" style="fill: rgb(205, 128, 114); transform-origin: 378.861px 134.568px;" id="elrvt86b7s87p" class="animable"></path><path d="M365.26,146a27.65,27.65,0,0,0,15.46-1.67s-5.07,7.84-16.13,4.77Z" style="fill: rgb(154, 93, 83); transform-origin: 372.655px 147.071px;" id="elu12qwjdigno" class="animable"></path><path d="M365.43,114.35a1.64,1.64,0,0,0,1.26,1.9,1.55,1.55,0,0,0,1.92-1.15,1.62,1.62,0,0,0-1.25-1.9A1.57,1.57,0,0,0,365.43,114.35Z" style="fill: rgb(38, 50, 56); transform-origin: 367.022px 114.726px;" id="elfw6s9enctks" class="animable"></path><path d="M364.11,109.73c.17.24,1.55-.44,3.28-.12s2.84,1.42,3.07,1.24,0-.49-.5-1a4.51,4.51,0,0,0-2.41-1.25,4.35,4.35,0,0,0-2.66.35C364.28,109.27,364,109.61,364.11,109.73Z" style="fill: rgb(38, 50, 56); transform-origin: 367.318px 109.699px;" id="elpgcya6k57b" class="animable"></path><path d="M380.76,117.5a1.63,1.63,0,0,0,1.26,1.9,1.56,1.56,0,0,0,1.92-1.15,1.63,1.63,0,0,0-1.25-1.9A1.56,1.56,0,0,0,380.76,117.5Z" style="fill: rgb(38, 50, 56); transform-origin: 382.35px 117.874px;" id="elf30l2uojxqu" class="animable"></path><path d="M381,113.22c.16.25,1.55-.43,3.28-.11s2.84,1.41,3.07,1.24,0-.5-.5-1a4.51,4.51,0,0,0-2.41-1.25,4.34,4.34,0,0,0-2.66.35C381.19,112.76,380.94,113.11,381,113.22Z" style="fill: rgb(38, 50, 56); transform-origin: 384.215px 113.198px;" id="elubm897rgxu" class="animable"></path><path d="M372.38,125.4a11.2,11.2,0,0,0-2.72-1c-.43-.13-.83-.29-.85-.61a2.23,2.23,0,0,1,.53-1.25l1.92-3.13c2.69-4.47,4.73-8.17,4.55-8.28s-2.51,3.43-5.2,7.89c-.66,1.1-1.28,2.16-1.87,3.16a2.63,2.63,0,0,0-.55,1.7,1.14,1.14,0,0,0,.61.78,4.11,4.11,0,0,0,.73.24A11.46,11.46,0,0,0,372.38,125.4Z" style="fill: rgb(38, 50, 56); transform-origin: 372.005px 118.264px;" id="el35ab4kqae88" class="animable"></path><path d="M382.36,106.77c.15.49,1.92.33,4,.66s3.71.95,4,.54c.13-.21-.15-.67-.8-1.16a6.87,6.87,0,0,0-2.93-1.15,6.68,6.68,0,0,0-3.14.25C382.69,106.18,382.29,106.54,382.36,106.77Z" style="fill: rgb(38, 50, 56); transform-origin: 386.372px 106.841px;" id="el1ffvyahzdipi" class="animable"></path><path d="M365.26,104.28c.28.47,1.77.34,3.47.65s3.07.88,3.48.54c.18-.17,0-.61-.52-1.11a5.53,5.53,0,0,0-2.68-1.19,5.43,5.43,0,0,0-2.92.24C365.42,103.69,365.14,104.06,365.26,104.28Z" style="fill: rgb(38, 50, 56); transform-origin: 368.755px 104.323px;" id="elpm7qczemy8r" class="animable"></path><path d="M398.28,123c.2,0,8.16-.88,6.51,6.79s-9,4.42-9,4.2S398.28,123,398.28,123Z" style="fill: rgb(205, 128, 114); transform-origin: 400.402px 128.915px;" id="elllqwhg5zk5k" class="animable"></path><path d="M398.79,131.55s.11.12.31.27a1.39,1.39,0,0,0,1,.24c.87-.12,1.83-1.26,2.16-2.63a4.52,4.52,0,0,0,0-2,1.57,1.57,0,0,0-.78-1.24.69.69,0,0,0-.87.2c-.15.19-.13.36-.18.36s-.13-.16,0-.47a.87.87,0,0,1,.4-.41,1,1,0,0,1,.78,0,1.93,1.93,0,0,1,1.14,1.49,4.43,4.43,0,0,1,0,2.23c-.38,1.54-1.48,2.81-2.66,2.89A1.44,1.44,0,0,1,399,132C398.76,131.74,398.76,131.56,398.79,131.55Z" style="fill: rgb(154, 93, 83); transform-origin: 400.835px 129.135px;" id="elkwlp1or52t" class="animable"></path><path d="M370.42,92.75c-1.09-1,3.53-4.13,6.88-4.83,5.06-1,12.37-.76,16.34,1.39,4.78,2.6,8.45,6.09,10,11.31a30.79,30.79,0,0,1-.08,16.11,9.25,9.25,0,0,1-2.12,4.43c-1.45,1.45-3.74,2.06-4.17,4.41a3.31,3.31,0,0,1-1.32,2.16c-1.74,1.17-3.13-.61-3.6-2.19-1-3.37-.4-7,.23-10.46a22.94,22.94,0,0,1,2.11-7.16c.66-1.19,1.53-2.26,2.13-3.49a3.93,3.93,0,0,0-.17-4.7,8.16,8.16,0,0,0-7.57-3.29c-4.65.56-12.52,1.18-14.11-.71-2.29-2.72-2.64-4.24-2.64-4.24Z" style="fill: rgb(38, 50, 56); transform-origin: 387.465px 107.73px;" id="elazz29bkedgi" class="animable"></path><path d="M376.9,127.38c.1,0,.07.47-.23,1.1a4.4,4.4,0,0,1-1.89,1.94,7.24,7.24,0,0,1-2.52.79c-.66.08-1.07.06-1.1-.05s.35-.3,1-.52a16.47,16.47,0,0,0,2.27-.95C376,128.83,376.66,127.27,376.9,127.38Z" style="fill: rgb(38, 50, 56); transform-origin: 374.055px 129.317px;" id="elhl651yd429d" class="animable"></path><path d="M374.9,87.08a21.66,21.66,0,0,1,22.57,1.22c6.06,4.37,10.78,12.57,9.66,19.93l-1.52,5.26-.88-.78c-5.77-3.93-12.13-8.41-16-10.26-8.12-3.84-23.39-4.72-23.39-4.72A22.64,22.64,0,0,1,374.9,87.08Z" style="fill: rgb(69, 90, 100); transform-origin: 386.318px 98.9855px;" id="el9l32ppl0c2v" class="animable"></path><path d="M373.85,93.83a3.46,3.46,0,0,1,2.36-.83A19.5,19.5,0,0,1,385,95a5.05,5.05,0,0,1,1.9,1.22,1.87,1.87,0,0,1,.33,2.11c-.55.92-1.9.9-2.91.53a9.8,9.8,0,0,1-3.1-1.26A18.43,18.43,0,0,0,375,96.24a2.25,2.25,0,0,1-1-.19A1.47,1.47,0,0,1,373.85,93.83Z" style="fill: rgb(38, 50, 56); transform-origin: 380.416px 96.0483px;" id="elej2mv4nv419" class="animable"></path><path d="M365.72,95.55a9.41,9.41,0,0,0,1.7.17c.54,0,1.21.08,2,.17s1.65.15,2.62.3c1.94.25,4.24.66,6.76,1.24a72,72,0,0,1,8,2.44,74,74,0,0,1,7.68,3.42c2.28,1.21,4.29,2.4,5.92,3.48.83.52,1.54,1,2.18,1.49s1.18.84,1.62,1.17a11.79,11.79,0,0,0,1.4,1,10.07,10.07,0,0,0-1.28-1.15c-.41-.36-.93-.78-1.56-1.24s-1.33-1-2.15-1.57a61.2,61.2,0,0,0-5.91-3.6A66.44,66.44,0,0,0,387,99.37,68,68,0,0,0,378.9,97a61.57,61.57,0,0,0-6.82-1.14c-1-.13-1.87-.16-2.65-.22s-1.45-.08-2-.08A9.47,9.47,0,0,0,365.72,95.55Z" style="fill: rgb(38, 50, 56); transform-origin: 385.66px 102.973px;" id="elrln8tjqjwci" class="animable"></path><path d="M392.9,86.25c-.07.07.69.86,1.66,2.31a20,20,0,0,1,2.74,6.19,20.22,20.22,0,0,1,.5,6.76c-.18,1.73-.48,2.79-.39,2.81s.14-.24.29-.71a13.2,13.2,0,0,0,.47-2.06,18.09,18.09,0,0,0-3.3-13.21,13.61,13.61,0,0,0-1.38-1.59A2.82,2.82,0,0,0,392.9,86.25Z" style="fill: rgb(38, 50, 56); transform-origin: 395.623px 95.2855px;" id="el4g2tc686g" class="animable"></path><path d="M379.12,93.9a20.13,20.13,0,0,0,1.11-1.81A15.44,15.44,0,0,1,388,85.9c1.23-.44,2-.59,2-.67a5.46,5.46,0,0,0-2.13.32,13.48,13.48,0,0,0-8,6.35A5.5,5.5,0,0,0,379.12,93.9Z" style="fill: rgb(38, 50, 56); transform-origin: 384.56px 89.5617px;" id="el7l37rnymfpf" class="animable"></path><g id="elbrcdb3zgulo"><g style="opacity: 0.3; transform-origin: 409.29px 118.479px;" class="animable"><path d="M404.63,112.65c4.25,3.35,8.9,6.67,11.66,11.5a8.53,8.53,0,0,1-2.18.14,25.55,25.55,0,0,1-6.13-1.15,23.61,23.61,0,0,1-5.69-2.44Z" id="elkioeqn3nvw" class="animable" style="transform-origin: 409.29px 118.479px;"></path></g></g><path d="M334,149.68c-.85,3-16.42,121.52-15.57,126.62s43.06,4.61,60.48,1.64,20.13.18,20.13.18l-5.53-33.65,3.37-15.75,11.51-31.44,6.38-23.8L390.66,156.9s-5.07,7.14-16.54,3.74-9-11.62-9-11.62l-26-10.4Z" style="fill: rgb(69, 90, 100); transform-origin: 366.583px 209.391px;" id="elmq7waj49j5" class="animable"></path><path d="M395.19,246.09l1.71-17.37-71.26-13.34c-3,25.65-7.57,58.6-7.19,60.92.85,5.1,43.33,9.43,60.76,6.45s21.18-2.59,21.18-2.59Z" style="fill: rgb(224, 224, 224); transform-origin: 359.409px 249.553px;" id="eleqmi3kavus6" class="animable"></path><path d="M433.07,206.88s-5.79-15.2-11.27-25.13a24.87,24.87,0,0,0-7-8.27c-4.22-3-15.73,24.65-15.73,24.65L408,216.41Z" style="fill: rgb(69, 90, 100); transform-origin: 416.07px 194.831px;" id="elvisbdr6oypb" class="animable"></path><path d="M321.88,127.6s8.59,4.67,10.48,5.79,11.08,7,11.08,7l-14,47a158.43,158.43,0,0,0-1.33-16.23c-1.12-7.56-6.78-10.34-9.79-12.12s-7-4-7-4Z" style="fill: rgb(69, 90, 100); transform-origin: 327.38px 157.495px;" id="el7s2wcndb677" class="animable"></path><path d="M326.12,208.08a4.32,4.32,0,0,1,0-.59c.05-.45.11-1,.18-1.7.17-1.54.41-3.64.7-6.22.57-5.25,1.25-12.52,1.81-20.57s1-15.28,1.33-20.61c.18-2.59.33-4.71.44-6.25.07-.69.12-1.25.16-1.7a4.27,4.27,0,0,1,.08-.59,2.15,2.15,0,0,1,0,.6c0,.44,0,1-.05,1.7-.07,1.55-.17,3.67-.29,6.26-.25,5.28-.61,12.58-1.17,20.63s-1.3,15.32-2,20.57c-.33,2.63-.63,4.75-.86,6.21-.11.68-.2,1.24-.28,1.68A2.07,2.07,0,0,1,326.12,208.08Z" style="fill: rgb(38, 50, 56); transform-origin: 328.475px 178.965px;" id="el6bshd5hncb6" class="animable"></path><path d="M410.71,190.64c.14,0-1.39,4.62-3.4,10.21s-3.75,10.09-3.88,10.05,1.38-4.63,3.39-10.22S410.58,190.59,410.71,190.64Z" style="fill: rgb(38, 50, 56); transform-origin: 407.071px 200.77px;" id="elw4fyels8am" class="animable"></path><polygon points="383.4 193.04 400.39 197.64 395.93 211.5 388.08 216.41 380.22 208.59 383.4 193.04" style="fill: rgb(224, 224, 224); transform-origin: 390.305px 204.725px;" id="eldg0804mpxvd" class="animable"></polygon><path d="M385.06,246.67s-.14.1-.43.22l-1.27.54c-1.1.46-2.72,1.07-4.74,1.77a121.37,121.37,0,0,1-16.14,4.34,123.08,123.08,0,0,1-16.59,2.11c-2.14.12-3.87.17-5.06.16h-1.38a2.2,2.2,0,0,1-.48,0,1.65,1.65,0,0,1,.48-.07l1.37-.08c1.19-.06,2.92-.16,5.05-.33A142.71,142.71,0,0,0,362.38,253a145.2,145.2,0,0,0,16.12-4.18c2-.65,3.67-1.21,4.79-1.61l1.31-.44A2.36,2.36,0,0,1,385.06,246.67Z" style="fill: rgb(38, 50, 56); transform-origin: 362.015px 251.247px;" id="elm8t9eewwd6c" class="animable"></path><path d="M399.46,134.85c.06,0,0,.42-.5.81a1.72,1.72,0,0,1-1,.37,1.59,1.59,0,0,1-1.24-.57,1.45,1.45,0,0,1-.33-1.35,1.38,1.38,0,0,1,.75-.84c.62-.26,1,0,1,.09s-.37,0-.78.24a1,1,0,0,0-.46.63,1,1,0,0,0,.25.89,1.33,1.33,0,0,0,1.68.24C399.21,135.11,399.39,134.81,399.46,134.85Z" style="fill: rgb(224, 224, 224); transform-origin: 397.91px 134.594px;" id="elv9gbxkkxwo" class="animable"></path><path d="M326.12,208.08s69.5-47.77,70.44-47.13l5.17,3.56-77.21,56.23a80.9,80.9,0,0,1,1.6-12.66" style="fill: rgb(255, 114, 94); transform-origin: 363.125px 190.842px;" id="el4prqmuv4ok" class="animable"></path><path d="M348.94,202.64c-.84-2.07-2-4.42-4.2-4.83a9.69,9.69,0,0,0-5.44.66c-4.2,2.44-10.05,7-14.86,10.54h0a13.08,13.08,0,0,0-5.82,8.14c-.58,3.16.26,6.39,1.09,9.49s2.18,6.6,5.27,7.13c2,.34,3.93-.8,5.64-1.9l10.54-6.77c4.21-2.7,8.77-5.88,9.92-10.75C352,210.42,350.46,206.38,348.94,202.64Z" style="fill: rgb(255, 114, 94); transform-origin: 334.892px 215.754px;" id="el23a5twgi4wi" class="animable"></path><polygon points="351.35 212.43 355.99 197.82 351.97 190.41 339.3 198.47 345.35 209.39 351.35 212.43" style="fill: rgb(255, 114, 94); transform-origin: 347.645px 201.42px;" id="elqr4h5165aws" class="animable"></polygon><path d="M335.51,200.8a3.83,3.83,0,0,1,1-.55,9.46,9.46,0,0,1,3-.89,4.74,4.74,0,0,1,2.19.27,5.43,5.43,0,0,1,2,1.5,19.61,19.61,0,0,1,1.61,2.21c.52.79,1.05,1.6,1.57,2.46a23.54,23.54,0,0,1,2.4,5.12,13.06,13.06,0,0,1,.58,4.6,9.36,9.36,0,0,1-.69,3,3.48,3.48,0,0,1-.57,1,12.33,12.33,0,0,0,.89-4.06,13,13,0,0,0-.67-4.43,24.37,24.37,0,0,0-2.39-5c-.51-.85-1-1.66-1.55-2.45a19.77,19.77,0,0,0-1.54-2.17,5,5,0,0,0-1.84-1.42,4.46,4.46,0,0,0-2-.31,11.1,11.1,0,0,0-2.95.72A5.34,5.34,0,0,1,335.51,200.8Z" style="fill: rgb(38, 50, 56); transform-origin: 342.694px 209.425px;" id="elgibhvykuv35" class="animable"></path><path d="M350.9,192c0-.06.49-.28,1.26,0a4.19,4.19,0,0,1,2.15,2.14,15.45,15.45,0,0,1,1.44,3.94,18.91,18.91,0,0,1-1.9-3.69,4.41,4.41,0,0,0-1.83-2A6.78,6.78,0,0,0,350.9,192Z" style="fill: rgb(38, 50, 56); transform-origin: 353.325px 194.971px;" id="elksgsbndf5mh" class="animable"></path><path d="M347.61,220.17a2.3,2.3,0,0,1-.1-.55c-.06-.42-.14-.94-.24-1.58a35.11,35.11,0,0,0-1.41-5.68,28.48,28.48,0,0,0-1.53-3.72A4.64,4.64,0,0,0,343,207a2.76,2.76,0,0,0-2.11-.45c-1.54.28-3,1.34-4.51,2.23s-3.08,1.92-4.64,3-3.07,2.14-4.49,3.22a27.83,27.83,0,0,0-3.88,3.31,7.49,7.49,0,0,0-2,4,9.07,9.07,0,0,0,.32,3.93,18.76,18.76,0,0,0,2.66,5.17l.91,1.31a2.11,2.11,0,0,1,.29.48,2.62,2.62,0,0,1-.38-.42c-.23-.28-.57-.7-1-1.26a17.68,17.68,0,0,1-2.84-5.17,9.44,9.44,0,0,1-.4-4.1,7.93,7.93,0,0,1,2.06-4.25,27.76,27.76,0,0,1,3.93-3.4c1.43-1.08,2.93-2.17,4.51-3.24s3.13-2.06,4.66-3c.77-.46,1.52-.91,2.28-1.33a7.68,7.68,0,0,1,2.42-.93,3.21,3.21,0,0,1,2.46.54,5.35,5.35,0,0,1,1.45,1.84,27.17,27.17,0,0,1,1.5,3.81,30.81,30.81,0,0,1,1.26,5.77c.08.69.13,1.23.14,1.6A2,2,0,0,1,347.61,220.17Z" style="fill: rgb(38, 50, 56); transform-origin: 334.24px 219.622px;" id="elh3m0zc9m8v5" class="animable"></path></g><g id="freepik--character-1--inject-10" class="animable" style="transform-origin: 122.667px 273.284px;"><path d="M145.58,262.69,117,263.81a26.13,26.13,0,0,0-8.58,9.48c-8.56,17.53-13.29,35-21,62.63-.76,2.71,2.15,5.15,4.93,5.53,19.44,2.65,44.07,4.91,63,5.67C147.89,320.6,143.94,290.19,145.58,262.69Z" style="fill: rgb(69, 90, 100); transform-origin: 121.324px 304.905px;" id="elxllgayfjuf" class="animable"></path><g id="elc6g0u7jktp"><g style="opacity: 0.3; transform-origin: 112.52px 310.005px;" class="animable"><path d="M116.4,277.29s-7.82,1.09-10.66,13.32S95.1,334.92,95.1,334.92,93.3,338.13,99,339s31.21,3.72,31.21,3.72Z" id="elxc4b46305d" class="animable" style="transform-origin: 112.52px 310.005px;"></path></g></g><path d="M96.55,338.4a1.5,1.5,0,0,1-.57-.34,2.76,2.76,0,0,1-.89-1.68,7.92,7.92,0,0,1,.11-3c.25-1.15.57-2.44.91-3.87,1.41-5.77,3.33-13.65,5.45-22.35l1.58-6.36c.49-2,.9-4,1.33-6s.87-3.7,1.37-5.36a33.9,33.9,0,0,1,1.74-4.52,15.14,15.14,0,0,1,4.32-5.47c.34-.24.63-.47.91-.63l.71-.37a3.17,3.17,0,0,1,.6-.28,3,3,0,0,1-.55.37l-.68.41c-.27.17-.54.42-.86.66a15.23,15.23,0,0,0-4.11,5.47c-2.57,5.3-3.45,13.52-5.85,22.17-2.18,8.68-4.16,16.54-5.61,22.31l-1,3.84a8,8,0,0,0-.19,2.93,2.85,2.85,0,0,0,.76,1.65C96.35,338.29,96.57,338.37,96.55,338.4Z" style="fill: rgb(38, 50, 56); transform-origin: 104.558px 308.285px;" id="el9i8x9md0iet" class="animable"></path><path d="M152.19,96.72a5.27,5.27,0,0,0-5.93-4.62,6.75,6.75,0,0,0-8.87-2.87c-1.45.78-2.56,2.08-4,2.92s-3,1.13-4.4,1.79a4.81,4.81,0,0,0-3,3.39,4.18,4.18,0,0,0,2.76,4.07A12.17,12.17,0,0,0,134,102a1.83,1.83,0,0,0-.58,2.35,3.64,3.64,0,0,0,2,1.66,8,8,0,0,0,8.25-1.38l3.33-2.47A5.27,5.27,0,0,0,152.19,96.72Z" style="fill: rgb(38, 50, 56); transform-origin: 139.09px 97.5768px;" id="elp310ek4s8p" class="animable"></path><path d="M143.78,107.58a1.73,1.73,0,0,1-2.31-.08,2.35,2.35,0,0,1-.52-2.38,3.74,3.74,0,0,1,1.6-1.93,9,9,0,0,1,2.37-1,16.1,16.1,0,0,1,3.89-.67,3.07,3.07,0,0,1,1.38.19,1.32,1.32,0,0,1,.82,1c0,.66-.54,1.16-1.08,1.55a40.53,40.53,0,0,1-6.34,3.7" style="fill: rgb(255, 114, 94); transform-origin: 145.917px 104.745px;" id="el77vat6lz1xm" class="animable"></path><path d="M141.86,107.21c-3.05-3.53-10.82-3.19-12.72-1a5.9,5.9,0,0,0-7.8,2.39l-8.3,1.6a8.67,8.67,0,0,0-4,1.51c-1.1.92-1.65,2.68-.78,3.83-2.93.69-4.17,5-2.06,7.13a3.13,3.13,0,0,0,.35,4.54,31.2,31.2,0,0,0-5.53,9.06,6.4,6.4,0,0,0-.52,4.34c.49,1.4,2.3,2.41,3.53,1.57a3.66,3.66,0,0,0-.27,3.94c-1.4,0-1.86,2.15-.93,3.19s2.49,1.18,3.89,1.18,2.91,0,4,.79a1.29,1.29,0,0,1-.48.88,5.74,5.74,0,0,0-1.47,7.78l.45.66c.78,1.16,2.75,2.26,4,2.94,3.12,1.72,5,1.46,8.52,2-1,2.25,4.59,7.42,11.25,2.63a126.11,126.11,0,0,0,35.9,5.73c1.93.06,4.26-.15,5.16-1.86a4.78,4.78,0,0,0,4.44-1.34,14.3,14.3,0,0,0,2.69-4,8.42,8.42,0,0,0,6.23-7.43,10.4,10.4,0,0,0,4.1-7.3,6.11,6.11,0,0,0,3.69-8.15,36.72,36.72,0,0,0-3.74-11.49c2.22-.43,3.13-3.39,2.27-5.49s-2.85-3.47-4.73-4.73c1.65.48,3.14-1.57,2.78-3.24s-1.82-2.86-3.27-3.78a31,31,0,0,0-6.78-3.22c-.72-2.93-4.37-6.34-7.06-7.7-10.88-5.46-18.56-7-32.83,3" style="fill: rgb(38, 50, 56); transform-origin: 148.003px 136.884px;" id="elrpnb5573r9s" class="animable"></path><path d="M131.07,124.44a4.47,4.47,0,0,1,3.86-4.64l23.51-6.66c7.56-1,12.87,8.17,13.56,15.77.78,8.44,1.39,18.77.57,25.11a16.4,16.4,0,0,1-13,14.53s.19,9.2.19,9.2l.31,10.7c-3.62-.51-26.93-5.54-26.93-5.54Z" style="fill: rgb(255, 191, 157); transform-origin: 152.013px 150.757px;" id="elqgbcon29kjf" class="animable"></path><path d="M159.44,148a11.35,11.35,0,0,1,2.83-.59c.44-.06.86-.16.93-.47a2.2,2.2,0,0,0-.34-1.32c-.45-1.07-.92-2.19-1.42-3.36-2-4.8-3.41-8.74-3.22-8.82s1.95,3.74,3.93,8.54l1.36,3.39a2.59,2.59,0,0,1,.28,1.74,1.14,1.14,0,0,1-.71.68,3.45,3.45,0,0,1-.76.13A11.48,11.48,0,0,1,159.44,148Z" style="fill: rgb(38, 50, 56); transform-origin: 161.019px 140.747px;" id="ele5c7c6iz4sh" class="animable"></path><path d="M159.58,168.55s-6.86.89-15.46-4c0,0,2.32,9.39,15.55,8.33Z" style="fill: rgb(255, 154, 108); transform-origin: 151.895px 168.757px;" id="el7xgv944yzig" class="animable"></path><path d="M152.3,128.35c-.16.49-1.92.31-4,.62s-3.7.91-4,.49c-.13-.2.15-.66.81-1.14a6.93,6.93,0,0,1,6-.84C152,127.76,152.36,128.13,152.3,128.35Z" style="fill: rgb(38, 50, 56); transform-origin: 148.288px 128.373px;" id="elmeazjvkd8qq" class="animable"></path><path d="M169.12,128.35c-.29.4-1.51,0-3,.05s-2.67.34-3-.07c-.12-.2.06-.6.58-1a4.3,4.3,0,0,1,4.78,0C169.08,127.74,169.25,128.15,169.12,128.35Z" style="fill: rgb(38, 50, 56); transform-origin: 166.123px 127.575px;" id="el3h9bn70guud" class="animable"></path><path d="M177.6,135.09a8.75,8.75,0,0,0-2-5.49,31.61,31.61,0,0,1-2.32-2.31c-1.39-1.89-1.15-4.49-1.72-6.78a9.56,9.56,0,0,0-5.83-6.54c-2.36-.88-5.06-.81-7.27-2-1.63-.91-2.87-2.45-4.55-3.25-3.28-1.56-7.15.07-10.3,1.88-.66,2.47.87,4.64,2.35,6.73a8.86,8.86,0,0,0,6.47,3.66c2,.15,4.29-.26,5.66,1.18s.83,4.12,2,5.84c1.68,2.46,5.61,1.6,8.16,3.15,2,1.19,2.77,3.58,3.74,5.67s2.66,4.29,5,4.21A25.7,25.7,0,0,0,177.6,135.09Z" style="fill: rgb(38, 50, 56); transform-origin: 160.527px 124.568px;" id="elf5irzlozkbm" class="animable"></path><path d="M148.47,115.17a44.92,44.92,0,0,0-17,2.79,8.15,8.15,0,0,0-4.23,2.82,8,8,0,0,0-1,4.38c0,4.75,1.8,10.59,3.54,15l5.87,3.65c4.59-1,2.62-8.93,2.46-12.88a9.33,9.33,0,0,0,5.58-8.16A10.34,10.34,0,0,0,148.47,115.17Z" style="fill: rgb(38, 50, 56); transform-origin: 137.348px 129.48px;" id="elk3365mwjcuq" class="animable"></path><path d="M135.61,142.11c-.14-2.72-3.46-3.3-5.82-1.94-1.29.75-2.28,2.25-2.16,5.14.31,7.7,8,5.79,8,5.57S135.77,145.29,135.61,142.11Z" style="fill: rgb(255, 191, 157); transform-origin: 131.653px 145.356px;" id="elc1ne7sfpt4m" class="animable"></path><path d="M133.14,148.06s-.13.1-.36.21a1.31,1.31,0,0,1-1,.06c-.82-.26-1.56-1.52-1.65-2.91a4.46,4.46,0,0,1,.29-1.93,1.51,1.51,0,0,1,1-1.07.67.67,0,0,1,.8.33c.12.21.07.37.11.38s.16-.14.09-.45a.9.9,0,0,0-.32-.47,1,1,0,0,0-.75-.17,1.9,1.9,0,0,0-1.35,1.25,4.5,4.5,0,0,0-.38,2.17c.11,1.55,1,3,2.09,3.24a1.44,1.44,0,0,0,1.22-.25C133.13,148.25,133.16,148.07,133.14,148.06Z" style="fill: rgb(255, 154, 108); transform-origin: 131.376px 145.384px;" id="elt06fisq1lh" class="animable"></path><path d="M132.23,151.28a.42.42,0,0,1,0,.1,1.08,1.08,0,0,1-.11.29,1.79,1.79,0,0,1-.91.79,4.83,4.83,0,0,1-1.9.36,6,6,0,0,1-1.24-.1,4.26,4.26,0,0,1-1.34-.43l.1,0a3.82,3.82,0,0,1-6.13,2.33l.13,0a1.62,1.62,0,0,1-1,.66,2.2,2.2,0,0,1-1.24-.13,1.91,1.91,0,0,1-1-.83,2.68,2.68,0,0,1-.37-1.27,3.9,3.9,0,0,1,.88-2.55,11.11,11.11,0,0,1,2.05-1.94v.18a2.74,2.74,0,0,1-1.19-1.85,3.92,3.92,0,0,1,.26-2.26,6.11,6.11,0,0,1,1.37-1.9,19.32,19.32,0,0,1,1.85-1.51l0,.17a2.87,2.87,0,0,1-.72-2.24,4.19,4.19,0,0,1,.91-2.27,10.35,10.35,0,0,1,3.79-2.56l-.06.13a5.1,5.1,0,0,1,5.64-6.21l-.12.13a4.42,4.42,0,0,1,1.1-3.73,4.37,4.37,0,0,1,3.28-1.54l-.1.1a4.32,4.32,0,0,1,1.8-3.33,4.22,4.22,0,0,1,3.22-.84l-.09.08a4.27,4.27,0,0,1,.66-2,5.5,5.5,0,0,1,1.19-1.4,4.45,4.45,0,0,1,2.65-1.09h.29l.27,0a3.31,3.31,0,0,1,.48.06,6,6,0,0,1,.73.22l.43.19.14.07-.15-.05-.43-.17a7.47,7.47,0,0,0-.73-.19,3.31,3.31,0,0,0-.48-.06l-.26,0-.29,0a4.31,4.31,0,0,0-2.57,1.1,5.37,5.37,0,0,0-1.15,1.37,4.07,4.07,0,0,0-.62,1.9v.09l-.08,0a4.3,4.3,0,0,0-4.81,4v.09h-.1a4.15,4.15,0,0,0-3.11,1.49,4.24,4.24,0,0,0-1,3.55l0,.15-.16,0a4.89,4.89,0,0,0-5.39,5.94l0,.09-.08,0a10.11,10.11,0,0,0-3.71,2.5,3.94,3.94,0,0,0-.85,2.14,2.6,2.6,0,0,0,.65,2.06l.09.1-.1.08a9,9,0,0,0-3.15,3.31,3.73,3.73,0,0,0-.25,2.13,2.5,2.5,0,0,0,1.09,1.7l.13.08-.12.1a11.17,11.17,0,0,0-2,1.9,3.75,3.75,0,0,0-.84,2.41,2.07,2.07,0,0,0,1.23,1.94,1.69,1.69,0,0,0,2-.46l0-.08.08.06a3.67,3.67,0,0,0,5.89-2.21l0-.09.07,0a4.51,4.51,0,0,0,1.3.43,5.88,5.88,0,0,0,1.22.11,4.62,4.62,0,0,0,1.88-.33,1.74,1.74,0,0,0,.9-.74C132.19,151.42,132.22,151.27,132.23,151.28Z" style="fill: rgb(69, 90, 100); transform-origin: 132.575px 135.032px;" id="elvyzuc54keds" class="animable"></path><path d="M103.07,142.57a2.89,2.89,0,0,1-.28-.47,3.84,3.84,0,0,1-.38-1.53,3.78,3.78,0,0,1,.67-2.4,4.06,4.06,0,0,1,2.81-1.73l-.07.09a5.3,5.3,0,0,1,.76-3.78,5.11,5.11,0,0,1,1.53-1.58,11.91,11.91,0,0,1,2.12-.95,4.52,4.52,0,0,0,1-.59,2.67,2.67,0,0,0,.72-.93c.35-.73.47-1.6.92-2.39a4.64,4.64,0,0,1,4.72-2.24l-.14.12a6.18,6.18,0,0,1,6.94-6.87l-.13.13a5.41,5.41,0,0,1,8.5-4.92h-.13a7.39,7.39,0,0,1,2.72-1.6,11.56,11.56,0,0,1,2.77-.59,12.77,12.77,0,0,1,4.55.39,8.76,8.76,0,0,1,2.69,1.17,5,5,0,0,1,.62.46l.2.17s-.28-.22-.85-.58a9,9,0,0,0-2.69-1.11,12.9,12.9,0,0,0-4.51-.34,11.22,11.22,0,0,0-2.72.6,7.26,7.26,0,0,0-2.64,1.57l-.06,0-.06,0a5.21,5.21,0,0,0-8.16,4.74l0,.14-.15,0a5.95,5.95,0,0,0-6.68,6.62l0,.15-.15,0a4.46,4.46,0,0,0-4.49,2.13c-.42.74-.55,1.6-.92,2.37a3,3,0,0,1-.78,1,4.36,4.36,0,0,1-1.07.6,12.11,12.11,0,0,0-2.09.93,5,5,0,0,0-1.49,1.51,5.14,5.14,0,0,0-.76,3.66l0,.08h-.08a4,4,0,0,0-2.74,1.65,3.83,3.83,0,0,0-.68,2.33,4.06,4.06,0,0,0,.34,1.51C103,142.41,103.08,142.56,103.07,142.57Z" style="fill: rgb(69, 90, 100); transform-origin: 124.291px 126.427px;" id="ell3ruj17xjwm" class="animable"></path><path d="M176.58,145.88a.74.74,0,0,1,0-.63,1.43,1.43,0,0,1,.46-.63,2.69,2.69,0,0,1,1-.47,4.49,4.49,0,0,0,1.21-.48,2.37,2.37,0,0,0,.89-1.22,4.92,4.92,0,0,0,.22-1.75c0-.64-.11-1.31-.09-2a20.17,20.17,0,0,1,1-4.53,6.49,6.49,0,0,0,.14-2.53,3.09,3.09,0,0,0-1.35-2.19,11.63,11.63,0,0,0-2.68-.95,4.59,4.59,0,0,1-1.37-.67,3,3,0,0,1-.95-1.23,14.4,14.4,0,0,1-.76-3,5.34,5.34,0,0,0-.51-1.47,2.39,2.39,0,0,0-1.12-1,8.69,8.69,0,0,0-2.12-.33,3.39,3.39,0,0,1-1.07-.28,2.15,2.15,0,0,1-.84-.74,7.77,7.77,0,0,1-.78-2,4.73,4.73,0,0,0-.93-1.76,4.64,4.64,0,0,0-3.32-1.65,4.75,4.75,0,0,0-3.29,1.13l-.1.08-.06-.12a7.3,7.3,0,0,0-4.5-4,6.74,6.74,0,0,0-2.56-.26,6,6,0,0,0-2.13.55,5.4,5.4,0,0,0-2.28,2,6.32,6.32,0,0,0-.39.71l-.09.19,0,.06a.15.15,0,0,1,0-.06l.08-.2a5,5,0,0,1,.37-.74,5.42,5.42,0,0,1,2.28-2.1,6.35,6.35,0,0,1,2.16-.59,7.1,7.1,0,0,1,2.63.25,7.48,7.48,0,0,1,4.64,4.1l-.16,0a5,5,0,0,1,3.43-1.19,4.93,4.93,0,0,1,4.46,3.56,7.6,7.6,0,0,0,.75,1.91,2.27,2.27,0,0,0,1.75.92,8.82,8.82,0,0,1,2.18.34A2.63,2.63,0,0,1,174,122a5.06,5.06,0,0,1,.53,1.53,15.39,15.39,0,0,0,.74,3,2.82,2.82,0,0,0,.89,1.15,4.3,4.3,0,0,0,1.29.63,12.18,12.18,0,0,1,2.73,1,3,3,0,0,1,1,1,3.94,3.94,0,0,1,.46,1.31,6.62,6.62,0,0,1-.16,2.6,20.94,20.94,0,0,0-1.08,4.49c0,.7.07,1.38.08,2a4.84,4.84,0,0,1-.25,1.81,2.53,2.53,0,0,1-.95,1.27,4.45,4.45,0,0,1-1.24.47,2.65,2.65,0,0,0-.94.43,1.4,1.4,0,0,0-.46.59A1,1,0,0,0,176.58,145.88Z" style="fill: rgb(69, 90, 100); transform-origin: 164.954px 128.435px;" id="ells13trzaiuj" class="animable"></path><path d="M191.71,134.21s0,0-.08-.14l-.21-.43c-.18-.4-.43-1-.76-1.69s-.71-1.63-1.25-2.63a6.83,6.83,0,0,0-2.53-2.8c-.62-.35-1.33-.58-2-.92a4.66,4.66,0,0,1-1-.63,2.54,2.54,0,0,1-.77-1c-.35-.8-.35-1.71-.62-2.54a2.17,2.17,0,0,0-.73-1.06,4.07,4.07,0,0,0-1.22-.59,7.76,7.76,0,0,1-1.35-.54,2.54,2.54,0,0,1-1-1.11,11.34,11.34,0,0,1-.6-3,3.81,3.81,0,0,0-.49-1.42,1.93,1.93,0,0,0-1.21-.83c-1-.22-2.1.11-3.22-.09a2.74,2.74,0,0,1-1.47-.8,7,7,0,0,1-.93-1.34,12.63,12.63,0,0,0-.83-1.34,2.92,2.92,0,0,0-1.11-1,4.46,4.46,0,0,0-2.91,0,6.89,6.89,0,0,1-2.92.2,7.63,7.63,0,0,1-2.52-1.2,13.86,13.86,0,0,0-2.24-1.29,7.91,7.91,0,0,0-4.57-.22,8.41,8.41,0,0,0-3.4,1.68,9.59,9.59,0,0,0-1.91,2.18,10.66,10.66,0,0,0-.82,1.64l-.19.44a1.15,1.15,0,0,1-.07.15,1.27,1.27,0,0,1,0-.16c0-.11.1-.26.16-.45a9.81,9.81,0,0,1,.8-1.67,9.3,9.3,0,0,1,1.89-2.23,8.42,8.42,0,0,1,3.46-1.74,8,8,0,0,1,4.67.2,13.74,13.74,0,0,1,2.28,1.3,7.57,7.57,0,0,0,2.45,1.16,6.6,6.6,0,0,0,2.84-.21,10.21,10.21,0,0,1,1.5-.24,2.92,2.92,0,0,1,2.75,1.33,14.62,14.62,0,0,1,.84,1.36,6.48,6.48,0,0,0,.9,1.29,2.36,2.36,0,0,0,1.34.74c1,.2,2.14-.14,3.23.1a2.12,2.12,0,0,1,1.35.92,4,4,0,0,1,.52,1.51,11.28,11.28,0,0,0,.58,2.93,2.21,2.21,0,0,0,1,1,7.21,7.21,0,0,0,1.31.54,3.92,3.92,0,0,1,1.28.63,2.31,2.31,0,0,1,.79,1.16c.29.88.28,1.77.61,2.53a3.11,3.11,0,0,0,1.71,1.56c.7.33,1.42.57,2.05.93a6.89,6.89,0,0,1,2.56,2.89c.54,1,.9,1.92,1.22,2.66s.56,1.29.73,1.7c.08.18.14.33.18.44Z" style="fill: rgb(69, 90, 100); transform-origin: 169.279px 119.797px;" id="elcq6isxskntu" class="animable"></path><path d="M183.66,126l.14,0a.8.8,0,0,1,.4.1,1.64,1.64,0,0,1,.75,1.37,4.12,4.12,0,0,1-.19,1.15,5.07,5.07,0,0,0-.22,1.33,3,3,0,0,0,.52,1.43c.29.47.66.93,1,1.48a2.19,2.19,0,0,1,.16,1.94c-.25.65-.74,1.19-1,1.85a2.81,2.81,0,0,0,.17,2.12c.29.71.71,1.4,1,2.19a3.46,3.46,0,0,1,.22,1.25,3.12,3.12,0,0,1-.31,1.27,15,15,0,0,1-1.5,2.17,3.55,3.55,0,0,0-.85,2.42,11.36,11.36,0,0,0,.89,2.61,4,4,0,0,1,.26,1.42,3.23,3.23,0,0,1-.38,1.37,11.76,11.76,0,0,1-1.7,2.15,6.17,6.17,0,0,0-1.38,2.16,18.16,18.16,0,0,1-.84,2.38,2.83,2.83,0,0,1-.79,1,3.5,3.5,0,0,1-1.1.5,10.32,10.32,0,0,0-1.07.37,3.42,3.42,0,0,0-.9.59,7.85,7.85,0,0,0-1.29,1.62c-.36.57-.7,1.13-1.07,1.62a5.27,5.27,0,0,1-2.72,1.93,5.63,5.63,0,0,1-2.51.2,5.46,5.46,0,0,1-1.53-.47,4,4,0,0,1-.48-.29,6,6,0,0,0,2,.67,5.74,5.74,0,0,0,2.46-.23,5.14,5.14,0,0,0,2.62-1.91c.37-.49.7-1,1.06-1.62a8.08,8.08,0,0,1,1.31-1.67,4.29,4.29,0,0,1,.94-.63,8.89,8.89,0,0,1,1.1-.37,3.47,3.47,0,0,0,1-.48,2.53,2.53,0,0,0,.73-.89,18.64,18.64,0,0,0,.82-2.36,6.42,6.42,0,0,1,1.42-2.23,11.53,11.53,0,0,0,1.66-2.1,3,3,0,0,0,.36-1.28,3.82,3.82,0,0,0-.25-1.33,11.35,11.35,0,0,1-.9-2.67,2.85,2.85,0,0,1,.21-1.39,5.21,5.21,0,0,1,.69-1.19,15.38,15.38,0,0,0,1.48-2.13,2.84,2.84,0,0,0,.29-1.17,3.12,3.12,0,0,0-.21-1.18c-.26-.76-.68-1.45-1-2.18a3.06,3.06,0,0,1-.17-2.26c.27-.71.76-1.24,1-1.85a2,2,0,0,0-.14-1.8c-.28-.54-.64-1-.94-1.49a3.08,3.08,0,0,1-.52-1.5,4.64,4.64,0,0,1,.25-1.36,4.43,4.43,0,0,0,.2-1.11,1.6,1.6,0,0,0-.68-1.34A1,1,0,0,0,183.66,126Z" style="fill: rgb(69, 90, 100); transform-origin: 176.975px 147.025px;" id="eld74zg2la4dr" class="animable"></path><path d="M153.87,150.46a1.05,1.05,0,0,1,1.34-.55l4.78,1.85.54.2a12,12,0,0,1-1.12,2.81,3,3,0,0,1-2.11,1.43,3.4,3.4,0,0,1-2-.54,4,4,0,0,1-2.09-2.46A5.73,5.73,0,0,1,153.87,150.46Z" style="fill: rgb(255, 154, 108); transform-origin: 156.87px 153.021px;" id="elqjr7svps0ak" class="animable"></path><path d="M127.7,150a4.15,4.15,0,0,0-1.16.64,5.18,5.18,0,0,0-1.91,3,5.54,5.54,0,0,0,0,2.53,6.19,6.19,0,0,0,1.37,2.55,6.26,6.26,0,0,0,2.64,1.8,5.72,5.72,0,0,0,3.43.13,6.19,6.19,0,0,0,3-1.73,5.59,5.59,0,0,0,1.45-2.86,6,6,0,0,0-1.43-5.08,5.36,5.36,0,0,0-1.73-1.16,5.18,5.18,0,0,0-1.51-.42,3.08,3.08,0,0,0-1,0,.88.88,0,0,0-.33.1,4.12,4.12,0,0,1,1.3,0,5.75,5.75,0,0,1,1.46.46,5.32,5.32,0,0,1,1.65,1.15,5.79,5.79,0,0,1,1.31,4.89,5.32,5.32,0,0,1-1.39,2.71,6,6,0,0,1-2.82,1.65,5.55,5.55,0,0,1-3.26-.12,6.12,6.12,0,0,1-2.54-1.71,6,6,0,0,1-1.33-2.43,5.38,5.38,0,0,1,0-2.42,5.2,5.2,0,0,1,1.78-3A11.9,11.9,0,0,1,127.7,150Z" style="fill: rgb(224, 224, 224); transform-origin: 130.551px 155.106px;" id="elcae0lfwr6ao" class="animable"></path><path d="M151.65,139.33a1.68,1.68,0,0,1-1.57,1.73,1.6,1.6,0,0,1-1.76-1.46,1.68,1.68,0,0,1,1.56-1.73A1.61,1.61,0,0,1,151.65,139.33Z" style="fill: rgb(38, 50, 56); transform-origin: 149.985px 139.465px;" id="el3ea9xs5m7ez" class="animable"></path><path d="M167.82,139.33a1.67,1.67,0,0,1-1.56,1.73,1.6,1.6,0,0,1-1.76-1.46,1.66,1.66,0,0,1,1.56-1.73A1.6,1.6,0,0,1,167.82,139.33Z" style="fill: rgb(38, 50, 56); transform-origin: 166.16px 139.465px;" id="ellc00rzznew" class="animable"></path><path d="M168.85,134.16c-.16.25-1.43-.64-3.07-.48s-2.74,1.22-2.94,1,0-.53.52-1a3.78,3.78,0,0,1,2.33-1.09,3.71,3.71,0,0,1,2.47.67C168.72,133.65,168.93,134.05,168.85,134.16Z" style="fill: rgb(38, 50, 56); transform-origin: 165.815px 133.643px;" id="elj3zk9acsg8" class="animable"></path><path d="M153.17,135.25c-.23.25-1.62-.86-3.59-.88s-3.42,1-3.64.77.13-.58.77-1.06a4.78,4.78,0,0,1,2.91-.94,4.71,4.71,0,0,1,2.85,1C153.07,134.67,153.28,135.13,153.17,135.25Z" style="fill: rgb(38, 50, 56); transform-origin: 149.536px 134.213px;" id="elramx41exvk" class="animable"></path><path d="M158.41,155.62s-.14.21-.54.38a3,3,0,0,1-1.79.12,4.69,4.69,0,0,1-2.33-1.29,2.86,2.86,0,0,1-.78-1.43,3.8,3.8,0,0,1,.08-1.74,7.57,7.57,0,0,1,.63-1.57,1.17,1.17,0,0,1,.71-.64,1.44,1.44,0,0,1,.87.15l2.37,1a10.61,10.61,0,0,1,2.14,1,10.77,10.77,0,0,1-2.27-.71l-2.42-.9c-.49-.21-.71-.19-1,.28a7.41,7.41,0,0,0-.58,1.46,2.76,2.76,0,0,0,.55,2.72,4.73,4.73,0,0,0,2.07,1.26,3.17,3.17,0,0,0,1.64,0C158.19,155.71,158.38,155.58,158.41,155.62Z" style="fill: rgb(38, 50, 56); transform-origin: 156.337px 152.82px;" id="elouk8zyrdx19" class="animable"></path><path d="M191.44,102.46a10.18,10.18,0,0,0-2.08-1.25,7.39,7.39,0,0,0-2.76-.54,6.79,6.79,0,0,0-3.54,1l-.17.1-.1-.18a6.34,6.34,0,0,0-3.8-2.89,6.43,6.43,0,0,0-5.42.77l-.21.14-.14-.2a10.37,10.37,0,0,0-6.51-4.1,9.93,9.93,0,0,0-6,.8,10.28,10.28,0,0,0-4.23,3.63l-.07.1h-.12a15.57,15.57,0,0,0-6.24,1.43,16,16,0,0,0-4.17,2.76,21.43,21.43,0,0,0-2.89,3.36s0-.1.13-.27.23-.44.44-.76a15.14,15.14,0,0,1,2.12-2.54,15.94,15.94,0,0,1,4.21-2.9,15.62,15.62,0,0,1,6.39-1.55l-.2.1a10.76,10.76,0,0,1,4.41-3.83,10.32,10.32,0,0,1,6.31-.85,10.8,10.8,0,0,1,6.83,4.32l-.35-.06a6.86,6.86,0,0,1,5.84-.79,6.67,6.67,0,0,1,4,3.14l-.27-.07a7,7,0,0,1,3.74-.93,7.35,7.35,0,0,1,2.84.64,6.83,6.83,0,0,1,1.55,1A2.65,2.65,0,0,1,191.44,102.46Z" style="fill: rgb(38, 50, 56); transform-origin: 167.215px 101.007px;" id="eldptbfqycti" class="animable"></path><path d="M139.37,98.9a4.57,4.57,0,0,1-1.93.43,6.9,6.9,0,0,1-5-1.89,6.4,6.4,0,0,1-1.82-3.36,7.11,7.11,0,0,1,.5-4.38,6.49,6.49,0,0,1,3.59-3.32,7,7,0,0,1,5.29,0l-.3.07a5,5,0,0,1,2.92-1.6,5.13,5.13,0,0,1,2.8.29,4.59,4.59,0,0,1,2.1,1.76,5.13,5.13,0,0,1,.36,5l-.34-.31a4.21,4.21,0,0,1,4,0,4.33,4.33,0,0,1,2.29,2.79,5.61,5.61,0,0,1-1.62,5.5,7,7,0,0,1-3.43,1.71,5.91,5.91,0,0,1-1,.11,1.18,1.18,0,0,1-.35,0s.48,0,1.33-.26a7,7,0,0,0,3.25-1.76,5.31,5.31,0,0,0,1.44-5.18,3.94,3.94,0,0,0-2.1-2.49,3.78,3.78,0,0,0-3.52,0l-.71.42.37-.73a4.65,4.65,0,0,0-.35-4.51,4,4,0,0,0-1.87-1.56,4.65,4.65,0,0,0-2.51-.26,4.53,4.53,0,0,0-2.62,1.43l-.12.14-.18-.07a6.5,6.5,0,0,0-4.9-.06,6.09,6.09,0,0,0-3.35,3.06A6.73,6.73,0,0,0,131,94a6.16,6.16,0,0,0,1.66,3.19,6.89,6.89,0,0,0,4.78,2A10.67,10.67,0,0,0,139.37,98.9Z" style="fill: rgb(38, 50, 56); transform-origin: 142.24px 93.2425px;" id="elicft7dgw81" class="animable"></path><path d="M102.47,118.28s-.06-.09-.15-.29a6.91,6.91,0,0,1-.28-.91,8.28,8.28,0,0,1,2.74-8.14,8.58,8.58,0,0,1,6.52-1.86l-.25.13a10.17,10.17,0,0,1,5.25-4.79,9.83,9.83,0,0,1,5.41-.54,10.24,10.24,0,0,1,4.53,2.05l-.26,0a11.28,11.28,0,0,1,5.5-1.21,11.52,11.52,0,0,1,4.27.94,10.71,10.71,0,0,1,2.43,1.46,3.41,3.41,0,0,1,.72.7,14.76,14.76,0,0,0-3.26-1.9,11.74,11.74,0,0,0-4.17-.81,10.94,10.94,0,0,0-5.27,1.24l-.13.07-.12-.1a9.78,9.78,0,0,0-4.33-1.92,9.34,9.34,0,0,0-5.12.52,9.77,9.77,0,0,0-5,4.54l-.08.16-.18,0a8.18,8.18,0,0,0-6.18,1.71,7.88,7.88,0,0,0-2.73,4.34,8.65,8.65,0,0,0-.11,3.43C102.35,117.85,102.51,118.27,102.47,118.28Z" style="fill: rgb(38, 50, 56); transform-origin: 120.37px 110px;" id="elurivb42qdxk" class="animable"></path><path d="M69.34,363.22c.62-.27,15.35-.62,15.35-.62v20.54l-17.91-.07Z" style="fill: rgb(255, 191, 157); transform-origin: 75.735px 372.87px;" id="elg485rlpjppi" class="animable"></path><path d="M70.23,383.47l-1.39-.21s-13,21-17.56,20.5l7.29-44.61,15.5,3.16C69.76,368.42,68.26,375.3,70.23,383.47Z" style="fill: rgb(255, 114, 94); transform-origin: 62.675px 381.459px;" id="el75uk84vq8jq" class="animable"></path><g id="elr511nge37i"><g style="opacity: 0.6; transform-origin: 66.5078px 366.15px;" class="animable"><path d="M68.34,366a2,2,0,0,0-2-1.62,1.78,1.78,0,0,0-1.67,1.83,2.06,2.06,0,0,0,2.1,1.71c.94-.15,1.83-1.23,1.51-2.09" style="fill: rgb(255, 255, 255); transform-origin: 66.5078px 366.15px;" id="eljehdaduv9c8" class="animable"></path></g></g><g id="eleetvtq8jg0t"><g style="opacity: 0.6; transform-origin: 56.79px 381.487px;" class="animable"><path d="M58.57,359.14l3.73.77-8.36,42.48s-1.23,1.83-2.66,1.37Z" style="fill: rgb(255, 255, 255); transform-origin: 56.79px 381.487px;" id="el2w3l5tf1fuv" class="animable"></path></g></g><path d="M68.68,383.39c-.23,0-.15-1.15-.71-2.34s-1.43-1.92-1.31-2.11,1.39.36,2,1.81S68.88,383.47,68.68,383.39Z" style="fill: rgb(38, 50, 56); transform-origin: 67.8185px 381.149px;" id="el85i7a89s5yo" class="animable"></path><path d="M65.88,387.74c-.23,0-.46-1-1.31-1.9s-1.84-1.28-1.79-1.49,1.36-.14,2.39,1S66.1,387.77,65.88,387.74Z" style="fill: rgb(38, 50, 56); transform-origin: 64.401px 385.999px;" id="elm6nwkfzrwo" class="animable"></path><path d="M59.56,389.43c0-.21,1.18-.32,2.34.44s1.5,1.87,1.29,1.93-.77-.68-1.74-1.3S59.55,389.65,59.56,389.43Z" style="fill: rgb(38, 50, 56); transform-origin: 61.4042px 390.539px;" id="elpwc3fzbgrzf" class="animable"></path><path d="M125.38,451.29c0-.68,10.73-20.45,10.73-20.45L154,442.31l-11.47,19.35Z" style="fill: rgb(255, 191, 157); transform-origin: 139.69px 446.25px;" id="el9ws3ldvy8b9" class="animable"></path><path d="M144.26,458.67l-.76,1.18s13.91,20.42,11.65,24.36L117.3,459.49l9.17-12.89C130.3,453,136,457.16,144.26,458.67Z" style="fill: rgb(255, 114, 94); transform-origin: 136.349px 465.405px;" id="elvyyo7urc4x" class="animable"></path><g id="elt41t8x8xkbl"><g style="opacity: 0.6; transform-origin: 126.929px 455.045px;" class="animable"><path d="M127.53,453.33a2,2,0,0,0-2.28,1.15,1.78,1.78,0,0,0,1,2.27,2.06,2.06,0,0,0,2.41-1.24,1.82,1.82,0,0,0-1.3-2.22" style="fill: rgb(255, 255, 255); transform-origin: 126.929px 455.045px;" id="eltsme2y06i" class="animable"></path></g></g><g id="el2jv7p29tuuk"><g style="opacity: 0.6; transform-origin: 136.441px 470.305px;" class="animable"><path d="M117.3,459.49l2.2-3.1L155,481.22s1.18,1.87.18,3Z" style="fill: rgb(255, 255, 255); transform-origin: 136.441px 470.305px;" id="elk8u4f7i70zo" class="animable"></path></g></g><path d="M143.56,460.05c-.13.19-1.11-.32-2.43-.29s-2.34.53-2.46.34.89-1.13,2.49-1.14S143.72,459.9,143.56,460.05Z" style="fill: rgb(38, 50, 56); transform-origin: 141.119px 459.551px;" id="el9a2iowax6mk" class="animable"></path><path d="M146.4,464.37c-.08.21-1.09,0-2.26.43s-1.91,1.16-2.09,1,.42-1.31,1.88-1.79S146.52,464.18,146.4,464.37Z" style="fill: rgb(38, 50, 56); transform-origin: 144.214px 464.83px;" id="elqsvg2k037i" class="animable"></path><path d="M145.39,470.83c-.19-.07.19-1.2,1.36-2s2.31-.61,2.28-.4-.93.44-1.89,1.07S145.59,470.93,145.39,470.83Z" style="fill: rgb(38, 50, 56); transform-origin: 147.187px 469.543px;" id="elgttrglg7s9t" class="animable"></path><polygon points="57.24 81.9 88.75 121.49 117.4 162.4 103.18 180.32 73.74 133.63 48.54 90.35 57.24 81.9" style="fill: rgb(255, 191, 157); transform-origin: 82.97px 131.11px;" id="elmlal3idszd" class="animable"></polygon><path d="M57,65.28a2.62,2.62,0,0,1-.16,2.25,8,8,0,0,0-1.09,4.37c.26,2.56.51,7.68,1.54,10.24l-8.7,8.44s-12.81-2.9-18.43-3.32c-6-.46-6.78-2.47-4.47-3.24S35.8,83,35.8,83s-11.28-4-10.73-7c.41-2.15,2.05-1.28,5.63.25a15.81,15.81,0,0,0,7.42,1s-10.53-6.9-9.72-9.22,2.82-1,5.12.26c1.51.84,4.3,3,6.23,3.81a2.68,2.68,0,0,0,2,0s-6.91-7.42-5.38-9,2-.45,3.76,1.34c2,2,6,5.65,8,6.08a14.58,14.58,0,0,0,4.1-.25S52.71,66,55,64.74C56.17,64.1,56.74,64.61,57,65.28Z" style="fill: rgb(255, 191, 157); transform-origin: 40.8894px 76.4637px;" id="elhx2l1uir939" class="animable"></path><path d="M49.72,83.26a6.49,6.49,0,0,1-.9-2.09,7.89,7.89,0,0,1,.11-5.48,5.26,5.26,0,0,1,.86-1.38l.86-1.15.78-1a2.71,2.71,0,0,0,.41-1A7.37,7.37,0,0,1,52.46,69a13.27,13.27,0,0,1-.26,2.25,2.66,2.66,0,0,1-.42,1.14L51,73.46l-.85,1.18a5.31,5.31,0,0,0-.77,1.26,8.34,8.34,0,0,0-.23,5.18C49.49,82.42,49.79,83.23,49.72,83.26Z" style="fill: rgb(255, 154, 108); transform-origin: 50.4211px 76.13px;" id="el69guk9qkzil" class="animable"></path><path d="M207.68,118.53c-1.09.87-20.22,24.57-22.18,29.13S169.93,171,169.93,171s2.64,21.22,4.48,21.2,14.57-17.61,19.13-28,19.57-40,19.57-40Z" style="fill: rgb(255, 191, 157); transform-origin: 191.52px 155.365px;" id="el8hc7t6dmo9c" class="animable"></path><path d="M214.91,107.24a43.14,43.14,0,0,1,2.41-4.27c1-1.43,2.17-2.54,2.88-2.26s1,1,0,3a13.32,13.32,0,0,0-1.64,7.34c.18,3.28-2.39,7.49-2.39,7.49l-3.22,6-5.27-6a3.62,3.62,0,0,0,0-3.79c-1.2-2.13-5-6.37-4.33-8.12.48-1.3,1.39-.24,2.14.86.51.75,3.16,3.65,3.16,3.65s-3.35-7.21-3.35-8.63,1.11-1.94,1.9-.86,3.68,6.78,3.68,6.78-2.86-9-2.12-10.2a1.15,1.15,0,0,1,2,0c.6.86,2.12,6.09,2.7,7.1A11.17,11.17,0,0,0,214.91,107.24Z" style="fill: rgb(255, 191, 157); transform-origin: 212.059px 111.094px;" id="el3sex0b984md" class="animable"></path><path d="M203.11,113.25a1.22,1.22,0,0,0-1.27,1.16.76.76,0,0,0,.44.72,47.76,47.76,0,0,0,5.83,1.42,4.34,4.34,0,0,0-.38-2.43C207.3,113.45,204.52,113.29,203.11,113.25Z" style="fill: rgb(255, 191, 157); transform-origin: 204.994px 114.899px;" id="el2f7t4pmjgrb" class="animable"></path><path d="M212.89,115a19.53,19.53,0,0,0-2.91,1.34,19,19,0,0,0-2.34,2.2,5.36,5.36,0,0,1,5.25-3.54Z" style="fill: rgb(255, 154, 108); transform-origin: 210.265px 116.768px;" id="elzqriai3r6co" class="animable"></path><path d="M172,263.48h7.32L180.9,284s8.08,28.46,10.69,47.13c2.26,16.21,3.15,34.75,2,44.79-1.83,15.42-45,79.91-45,79.91l-21.1-14.06,22.41-56.67,5.06-22.18-11.56-74.59,20.5-26.26Z" style="fill: rgb(38, 50, 56); transform-origin: 160.791px 358.95px;" id="eleoi48fc0yr" class="animable"></path><path d="M125,255.45s-13.77,26.39-13,39,13,40.93,13,40.93l8.85,22.88s-14.44.86-27.26.86c-14.73,0-28.78,1.06-28.78,1.06V385s65.33,5.59,72.64,5.59c16.46,0,25.16-15.54,20.71-40.33C167.45,329.79,163.6,304,163.6,304l5-28.52,3.4-12Z" style="fill: rgb(38, 50, 56); transform-origin: 125.064px 323.02px;" id="elgiwsdj8735h" class="animable"></path><path d="M150.05,274.87a3.78,3.78,0,0,1-.41.9,15.37,15.37,0,0,1-1.51,2.23,18.23,18.23,0,0,1-15.75,6.75,15,15,0,0,1-2.65-.45,3.34,3.34,0,0,1-.94-.32c0-.1,1.38.29,3.61.4a19.12,19.12,0,0,0,15.45-6.62C149.31,276.07,150,274.82,150.05,274.87Z" style="fill: rgb(69, 90, 100); transform-origin: 139.42px 279.842px;" id="el9fngr3q8ksv" class="animable"></path><g id="elue8h27lc4k"><g style="opacity: 0.3; transform-origin: 148.835px 271.191px;" class="animable"><path d="M118.14,270.33s21.56,9.14,31.91,8.17,29.29-5.24,29.29-5.24l.19-6.36L121,263.81Z" id="el9a8xjsc4nji" class="animable" style="transform-origin: 148.835px 271.191px;"></path></g></g><path d="M143.68,366.17a58.69,58.69,0,0,1-5.09-3.74,29.59,29.59,0,0,1-4.77-4.15,54.65,54.65,0,0,1,5.09,3.74A29.06,29.06,0,0,1,143.68,366.17Z" style="fill: rgb(69, 90, 100); transform-origin: 138.75px 362.225px;" id="el75648szi6fh" class="animable"></path><path d="M160.91,295.11s.06.22.15.66.22,1.11.38,2c.34,1.74.82,4.26,1.44,7.51,1.24,6.54,3,16,5.21,27.63,1.07,5.84,2.34,12.2,3.51,19.09.13.87.26,1.74.4,2.62s.17,1.78.25,2.68c.22,1.8.2,3.64.25,5.5a46,46,0,0,1-1.44,11.41,24.89,24.89,0,0,1-5.7,10.61,19.49,19.49,0,0,1-11.09,5.77,28.7,28.7,0,0,1-6.49.25c-2.17-.11-4.35-.26-6.55-.4l-13.38-1c-17.77-1.38-34.7-2.8-50.09-4.12l-.22,0V385c0-8.83,0-17.15,0-24.84V360h.19c8.48-.58,16.23-.86,23.08-1l9.58,0q4.44,0,8.11-.15c4.88-.13,8.7-.28,11.31-.39l3-.12c.67,0,1,0,1,0s-.34.05-1,.09l-3,.19c-2.6.15-6.42.34-11.31.51-2.44.08-5.15.15-8.1.2l-9.58.1c-6.84.13-14.59.45-23,1l.19-.21c0,7.69,0,16,0,24.84l-.22-.24c15.39,1.29,32.32,2.7,50.09,4.08l13.37,1c2.2.14,4.38.29,6.55.4a28.84,28.84,0,0,0,6.38-.23A19,19,0,0,0,165,384.43a24.42,24.42,0,0,0,5.6-10.4,45.88,45.88,0,0,0,1.45-11.28c-.05-1.85,0-3.68-.24-5.46-.09-.9-.14-1.79-.25-2.67l-.39-2.6c-1.14-6.87-2.4-13.26-3.44-19.1-2.13-11.66-3.85-21.11-5-27.65-.59-3.26-1-5.79-1.35-7.53-.15-.85-.26-1.5-.34-2S160.91,295.11,160.91,295.11Z" style="fill: rgb(69, 90, 100); transform-origin: 125.02px 343.015px;" id="elevm7qv5jm48" class="animable"></path><path d="M181.12,259.23c-1.28-8.86-.84-13.54-1.59-24.75-.15-2.17-.13-10.36-.36-12.52-.08-.82,1.33-5.77,2.6-10A22,22,0,0,0,180,195.3l-3.32-5c2.76-13.83-5.48-21.07-5.48-21.07s-12.56,9.42-17.53,10.33-22.13-4.52-22.13-4.52l-13-14.21-17.15,21.71,8.15,11.64,9.53,19.89,5.31,14.81a15.89,15.89,0,0,1,.37,9.55l-2.07,15.31S134,272.93,148,273.25s31.48-1.52,38.6-4Z" style="fill: rgb(224, 224, 224); transform-origin: 143.995px 217.058px;" id="elsdr3fton3he" class="animable"></path><path d="M173.65,222c.08.12-5.88,4-13.3,8.72s-13.51,8.41-13.59,8.29,5.88-4,13.31-8.73S173.57,221.86,173.65,222Z" style="fill: rgb(38, 50, 56); transform-origin: 160.205px 230.504px;" id="elw7puna97iho" class="animable"></path><path d="M128.24,197.28c-.09,0,.28-1.1.63-2.89a27.06,27.06,0,0,0,.45-7,27.38,27.38,0,0,0-1.43-6.92c-.61-1.72-1.12-2.73-1-2.77s.19.22.45.67a15.84,15.84,0,0,1,.93,2,23.26,23.26,0,0,1,1.61,7,23,23,0,0,1-.61,7.17,14.84,14.84,0,0,1-.65,2.09C128.39,197,128.27,197.3,128.24,197.28Z" style="fill: rgb(38, 50, 56); transform-origin: 128.406px 187.488px;" id="elesa0atf8dhk" class="animable"></path><path d="M179.1,193.69c-.16.11-2-2.72-4.83-5.61s-5.72-4.69-5.61-4.84a8.46,8.46,0,0,1,1.9,1.1,29.09,29.09,0,0,1,4.08,3.37A27.84,27.84,0,0,1,178,191.8,8.54,8.54,0,0,1,179.1,193.69Z" style="fill: rgb(38, 50, 56); transform-origin: 173.878px 188.467px;" id="elgtvb7ou8uqr" class="animable"></path><path d="M132.64,193.8a106.78,106.78,0,0,1,5.41,25.94s18.66,1.06,23.16.21,15.55-4,17-3.81l.41-9.76a36,36,0,0,0-2.19-10.55s-4.78.16-8.31.16-4.13-.12-5.35-1.09-2.31-2.19-3.52-1.1-1.58,2.31-3.53,1.58a26.63,26.63,0,0,1-4.13-2C150.63,192.83,135.43,191.86,132.64,193.8Z" style="fill: rgb(255, 114, 94); transform-origin: 155.63px 206.463px;" id="el1zxiyge1hg3" class="animable"></path><path d="M140.42,202.94c-.38-2.87.47-4.51,2.42-4.51s3.22,1.55,3.57,4.27l1.13,8.83a6.61,6.61,0,0,1-.07,2.43c.13.31.28.33.59.29l.18,0,.3,2.37-.26,0a1.6,1.6,0,0,1-1.82-.9,3,3,0,0,1-1.31.54c-1.9.31-3.15-1.16-3.52-4Zm3.18,9.25c.16,1.26.61,1.68,1.23,1.6s.94-.61.78-1.85l-1.2-9.33c-.16-1.24-.61-1.7-1.24-1.69s-1,.51-.8,1.76Z" style="fill: rgb(255, 255, 255); transform-origin: 144.436px 207.546px;" id="elltu9v2juz4" class="animable"></path><path d="M149.06,198.62l1.61,12.72c.15,1.18.6,1.55,1.21,1.46s1-.55.81-1.71l-1.57-12.47H153l1.51,12.1c.32,2.54-.49,4.15-2.38,4.46s-3.08-1.07-3.42-3.76l-1.63-12.79Z" style="fill: rgb(255, 255, 255); transform-origin: 150.829px 206.921px;" id="elt24ptx2aytq" class="animable"></path><path d="M157.14,205.08l2.7-.18.26,2.14-2.69.24.55,4.5,3.36-.46.25,2.12-5.27.84-1.94-15.67h5.41l.26,2.12-3.42.08Z" style="fill: rgb(255, 255, 255); transform-origin: 157.965px 206.445px;" id="elpdlc78fm8ff" class="animable"></path><path d="M163.71,204.64l2.7-.18.23,2-2.68.25.5,4.2,3.35-.47.23,2-5.27.84L161,198.6h5.42l.23,2-3.42.08Z" style="fill: rgb(255, 255, 255); transform-origin: 164.52px 205.94px;" id="elv1fgwpqmj5c" class="animable"></path><path d="M169.84,202.26l1.12,9.67-1.74.28-1.59-13.62h2.49l2.92,7.73-.88-7.73h1.77l1.42,12.64-2,.32Z" style="fill: rgb(255, 255, 255); transform-origin: 171.49px 205.4px;" id="elf3e43ecdzeg" class="animable"></path><path d="M159.45,214.6a33.71,33.71,0,0,1,1-3.27c.64-2,1.44-4.82,2.1-8a82.12,82.12,0,0,0,1.27-8.14c.23-2.1.32-3.41.39-3.41a3.06,3.06,0,0,1,.05.92c0,.6,0,1.46-.1,2.52a61.68,61.68,0,0,1-3.39,16.19c-.36,1-.67,1.8-.92,2.35A3.25,3.25,0,0,1,159.45,214.6Z" style="fill: rgb(38, 50, 56); transform-origin: 161.862px 203.19px;" id="elyr45n3ju0km" class="animable"></path><g id="el0lta0579kvg"><g style="opacity: 0.3; transform-origin: 159.981px 212.635px;" class="animable"><path d="M159.71,213.94a57.79,57.79,0,0,0-4.7,15.47c3.07-5.12,6.17-10.29,8.09-15.95s2.61-11.91.79-17.6a68.32,68.32,0,0,1-4.18,18.08" id="el54f0qhp633m" class="animable" style="transform-origin: 159.981px 212.635px;"></path></g></g><path d="M117,263.81c.45-2.9,5.74-10.06,5.74-10.06l42.59.22,15.1-1.23c1.71,1.6,2.21,3.69.72,6.49-39.53,1-50.67,9.72-67,18.95Z" style="fill: rgb(69, 90, 100); transform-origin: 148.091px 265.46px;" id="eltabqbqb7hue" class="animable"></path><path d="M145.55,256.44a5.79,5.79,0,0,1-1.16.31l-3.18.69c-2.69.59-6.4,1.44-10.46,2.52s-7.69,2.18-10.32,3l-3.11,1a4.68,4.68,0,0,1-1.16.3,5.5,5.5,0,0,1,1.09-.49c.72-.29,1.76-.68,3.06-1.14,2.61-.92,6.24-2.08,10.31-3.16s7.8-1.88,10.51-2.38c1.36-.24,2.46-.43,3.23-.53A4.62,4.62,0,0,1,145.55,256.44Z" style="fill: rgb(38, 50, 56); transform-origin: 130.855px 260.349px;" id="elooh7dv00sf8" class="animable"></path><path d="M153.93,259.68s-.15.08-.45.18l-1.33.41c-1.15.35-2.82.86-4.87,1.51-4.11,1.31-9.73,3.29-15.77,5.87s-11.36,5.28-15.15,7.34c-1.89,1-3.41,1.88-4.46,2.48l-1.21.68a1.77,1.77,0,0,1-.44.2s.12-.12.38-.29l1.17-.76c1-.66,2.51-1.56,4.39-2.63a148.5,148.5,0,0,1,31-13.24c2.07-.61,3.75-1.07,4.93-1.35l1.35-.32A2.15,2.15,0,0,1,153.93,259.68Z" style="fill: rgb(38, 50, 56); transform-origin: 132.09px 269.015px;" id="el8ynxhy6hfqp" class="animable"></path><path d="M191.39,309.38c-1.16-2.39-1-5.18-1.25-7.83-.58-5.56-3.3-10.67-6.44-15.29s-6.76-8.94-9.51-13.81-4.61-10.48-3.81-16l-5.49.32a27.08,27.08,0,0,0-2.53,14.82,80.92,80.92,0,0,0,3.14,14.88c2.21,7.93,4.51,16.06,9.44,22.64,2.09,2.78,4.67,5.34,5.71,8.66l9.28-2.53a3.81,3.81,0,0,0,2.55-1.52C193.21,312.34,192.07,310.78,191.39,309.38Z" style="fill: rgb(69, 90, 100); transform-origin: 177.453px 287.11px;" id="elipze733y17" class="animable"></path><path d="M191.39,309.38a1.94,1.94,0,0,1,.16.26l.42.76a8.9,8.9,0,0,1,.62,1.3,2.6,2.6,0,0,1,0,2,3.1,3.1,0,0,1-2,1.47c-.87.27-1.82.52-2.85.81l-7,2-.16,0,0-.15a15.76,15.76,0,0,0-2.51-4.54c-1.11-1.49-2.43-2.94-3.62-4.63a46.92,46.92,0,0,1-6-11.93c-1.59-4.51-2.9-9.4-4.28-14.5s-2.48-10.61-2-16.32a24.3,24.3,0,0,1,2.57-9.25l.07-.13h.15l5.48-.32h.31l0,.3a22.71,22.71,0,0,0,1.74,11.67,48.08,48.08,0,0,0,5.45,9.56c2,2.87,4,5.5,5.78,8.06a48.7,48.7,0,0,1,4.29,7.43,27.31,27.31,0,0,1,2.14,6.68,49,49,0,0,1,.46,5.22,14.16,14.16,0,0,0,.53,3.22c.22.71.39,1.06.37,1.07a5.58,5.58,0,0,1-.46-1,13.41,13.41,0,0,1-.62-3.23,47.69,47.69,0,0,0-.54-5.2,27.11,27.11,0,0,0-2.18-6.59,49.56,49.56,0,0,0-4.31-7.33c-1.75-2.54-3.78-5.16-5.82-8a48.86,48.86,0,0,1-5.54-9.64,23.14,23.14,0,0,1-1.8-11.92l.27.29-5.48.32.21-.13a23.75,23.75,0,0,0-2.51,9.05c-.48,5.61.65,11.07,2,16.15s2.67,10,4.24,14.47a46.83,46.83,0,0,0,5.88,11.85c1.17,1.67,2.48,3.14,3.59,4.65a15.63,15.63,0,0,1,2.52,4.66l-.2-.11,7.06-1.89c1-.28,2-.52,2.85-.77a2.93,2.93,0,0,0,1.91-1.34,2.42,2.42,0,0,0,0-1.85,10.79,10.79,0,0,0-.57-1.31l-.39-.78A1.92,1.92,0,0,1,191.39,309.38Z" style="fill: rgb(38, 50, 56); transform-origin: 177.423px 287.095px;" id="eldecd18uiqog" class="animable"></path><path d="M191.21,308.06a6.73,6.73,0,0,1-1.57,1.27,29.83,29.83,0,0,1-4.25,2.37,29.41,29.41,0,0,1-4.6,1.62,7,7,0,0,1-2,.34c0-.16,2.95-.88,6.37-2.44S191.12,307.93,191.21,308.06Z" style="fill: rgb(38, 50, 56); transform-origin: 185px 310.857px;" id="elemdvs44jfm" class="animable"></path><path d="M215.67,280.8c-2.12-1.1-3.49-3.21-5.11-5-3.41-3.69-8.11-5.91-12.86-7.55s-9.67-2.8-14.26-4.82-9-5.07-11.36-9.49l-3.78,3.18a24.38,24.38,0,0,0,6.14,12,72.42,72.42,0,0,0,10.27,9c5.84,4.52,11.87,9.14,19,11.23,3,.88,6.23,1.33,8.77,3.16l5.32-6.81a3.44,3.44,0,0,0,1-2.46C218.56,282,216.91,281.44,215.67,280.8Z" style="fill: rgb(69, 90, 100); transform-origin: 193.55px 273.225px;" id="el2e34gunjjjj" class="animable"></path><path d="M215.67,280.8l.25.1.72.32a8.07,8.07,0,0,1,1.14.6,2.29,2.29,0,0,1,1.07,1.43,2.82,2.82,0,0,1-.65,2.14c-.48.67-1,1.36-1.62,2.12l-4,5.19-.1.13-.13-.09a14,14,0,0,0-4.24-1.92c-1.59-.47-3.33-.81-5.1-1.38a42.3,42.3,0,0,1-10.73-5.38c-3.58-2.39-7.15-5.2-10.89-8.13s-7.48-6.31-10.21-10.68a22,22,0,0,1-3.12-8.06l0-.14.11-.1,3.78-3.17.24-.2.14.27a20.35,20.35,0,0,0,7.51,7.46,43.65,43.65,0,0,0,9.07,3.95c3,1,5.86,1.79,8.49,2.7a45.37,45.37,0,0,1,7.08,3,24.9,24.9,0,0,1,5.13,3.67,40.2,40.2,0,0,1,3.13,3.52,13.47,13.47,0,0,0,2.11,2c.54.39.86.55.85.57a4.47,4.47,0,0,1-.9-.5,11.79,11.79,0,0,1-2.19-2,42.75,42.75,0,0,0-3.18-3.45,25.24,25.24,0,0,0-5.11-3.57,45.18,45.18,0,0,0-7-3c-2.62-.88-5.49-1.68-8.5-2.65a43.54,43.54,0,0,1-9.18-4,20.83,20.83,0,0,1-7.7-7.62l.38.07-3.77,3.18.09-.24a21.45,21.45,0,0,0,3.05,7.86c2.67,4.29,6.41,7.61,10.09,10.56s7.29,5.76,10.83,8.14a42.25,42.25,0,0,0,10.6,5.38c1.74.57,3.47.92,5.08,1.41a14.24,14.24,0,0,1,4.33,2l-.23,0,4.07-5.15c.59-.75,1.16-1.45,1.64-2.09a2.61,2.61,0,0,0,.65-2,2.15,2.15,0,0,0-1-1.34,9.39,9.39,0,0,0-1.1-.64l-.7-.36C215.74,280.86,215.66,280.81,215.67,280.8Z" style="fill: rgb(38, 50, 56); transform-origin: 193.464px 273.205px;" id="el9psfqkyo4x" class="animable"></path><path d="M214.52,280.15a5.26,5.26,0,0,1-.54,1.78,19.15,19.15,0,0,1-2.24,3.9,18.63,18.63,0,0,1-3.09,3.26,5.24,5.24,0,0,1-1.56,1,50.58,50.58,0,0,0,4.24-4.6A52.74,52.74,0,0,0,214.52,280.15Z" style="fill: rgb(38, 50, 56); transform-origin: 210.805px 285.12px;" id="ele22jkxpbqp" class="animable"></path><path d="M173.4,254.78a5.25,5.25,0,1,1-5.25-5.25A5.25,5.25,0,0,1,173.4,254.78Z" style="fill: rgb(69, 90, 100); transform-origin: 168.15px 254.78px;" id="elq972546zage" class="animable"></path><path d="M173.4,254.78c-.05,0,0-.46-.26-1.25a5.2,5.2,0,0,0-1.92-2.77,5,5,0,1,0,0,8.05,5.2,5.2,0,0,0,1.92-2.77c.22-.79.21-1.26.26-1.26s0,.12,0,.34a4.49,4.49,0,0,1-.1,1,5.25,5.25,0,0,1-1.9,3,5.43,5.43,0,0,1-7.72-1.06,5.45,5.45,0,0,1,0-6.51,5.44,5.44,0,0,1,7.72-1.07,5.3,5.3,0,0,1,1.9,3,4.38,4.38,0,0,1,.1,1C173.43,254.67,173.42,254.78,173.4,254.78Z" style="fill: rgb(38, 50, 56); transform-origin: 168.012px 254.804px;" id="elgadlnp8zpp" class="animable"></path><path d="M165.3,250.45a3,3,0,0,1,1.5.63,6.81,6.81,0,0,1,3,6.92,3,3,0,0,1-.57,1.52,14.82,14.82,0,0,1,.21-1.57,7.36,7.36,0,0,0-2.84-6.57C165.83,250.78,165.27,250.52,165.3,250.45Z" style="fill: rgb(38, 50, 56); transform-origin: 167.603px 254.985px;" id="els9yrsfu0buh" class="animable"></path><path d="M168.54,252.82c0,.08-.41,0-.94.19a5.4,5.4,0,0,0-1.76,1.52c-1.23,1.43-1.88,2.85-2,2.79a6,6,0,0,1,1.63-3.12,4.47,4.47,0,0,1,2-1.54C168.18,252.48,168.58,252.78,168.54,252.82Z" style="fill: rgb(38, 50, 56); transform-origin: 166.191px 254.962px;" id="elg5tt8bfsga" class="animable"></path></g><defs>     <filter id="active" height="200%">         <feMorphology in="SourceAlpha" result="DILATED" operator="dilate" radius="2"></feMorphology>                <feFlood flood-color="#32DFEC" flood-opacity="1" result="PINK"></feFlood>        <feComposite in="PINK" in2="DILATED" operator="in" result="OUTLINE"></feComposite>        <feMerge>            <feMergeNode in="OUTLINE"></feMergeNode>            <feMergeNode in="SourceGraphic"></feMergeNode>        </feMerge>    </filter>    <filter id="hover" height="200%">        <feMorphology in="SourceAlpha" result="DILATED" operator="dilate" radius="2"></feMorphology>                <feFlood flood-color="#ff0000" flood-opacity="0.5" result="PINK"></feFlood>        <feComposite in="PINK" in2="DILATED" operator="in" result="OUTLINE"></feComposite>        <feMerge>            <feMergeNode in="OUTLINE"></feMergeNode>            <feMergeNode in="SourceGraphic"></feMergeNode>        </feMerge>            <feColorMatrix type="matrix" values="0   0   0   0   0                0   1   0   0   0                0   0   0   0   0                0   0   0   1   0 "></feColorMatrix>    </filter></defs></svg>